<svg version="1.1" width="2383.92pt" height="3370.32pt" viewBox="0 0 2383.92 3370.32" overflow="visible" xmlns="http://www.w3.org/2000/svg">
  <g id="FINAL_LOGO">
    <path d="M1135.9828,2283.2622 C1135.9541,2333.342 1135.9254,2383.4219 1135.8967,2433.5017 C1094.1936,2383.396 1052.4906,2333.29 1010.78766,2283.1843 C1009.4236,2283.1833 1008.0595,2283.1826 1006.6955,2283.1816 C1006.65796,2348.5132 1006.6205,2413.8447 1006.58295,2479.1765 C1013.06226,2479.1807 1019.54156,2479.1846 1026.0209,2479.1885 C1026.0492,2429.718 1026.0776,2380.2473 1026.1061,2330.7769 C1067.4683,2380.2732 1108.8307,2429.7695 1150.193,2479.2659 C1151.5997,2479.2668 1153.0063,2479.2678 1154.4131,2479.2686 C1154.4506,2413.9368 1154.488,2348.6052 1154.5255,2283.2737 C1148.3446,2283.2698 1142.1637,2283.266 1135.9828,2283.2622 z" stroke="Black" stroke-width="0" fill="#B8B8B8" fill-opacity="1" />
    <path d="M1621.162,2283.5645 C1621.1056,2319.0046 1621.1914,2371.2385 1621.0535,2397.0828 C1620.9845,2410.005 1620.8596,2416.3293 1620.6036,2421.1333 C1620.3477,2425.9375 1619.9608,2429.221 1619.1584,2432.5244 C1618.3561,2435.8281 1617.1382,2439.1519 1615.7002,2442.149 C1614.2621,2445.1458 1612.604,2447.816 1610.7081,2450.2402 C1608.8124,2452.664 1606.6791,2454.842 1604.2463,2456.7646 C1601.8138,2458.6875 1599.0819,2460.3545 1596.3013,2461.7056 C1590.7399,2464.4075 1584.9834,2465.844 1578.293,2465.7942 C1574.9478,2465.769 1571.369,2465.3726 1567.764,2464.4866 C1564.1589,2463.6006 1560.5277,2462.2249 1557.1202,2460.5327 C1553.7128,2458.8406 1550.5292,2456.832 1547.8843,2454.631 C1545.2393,2452.4304 1543.1332,2450.037 1541.3983,2447.4656 C1539.6636,2444.8938 1538.3,2442.1436 1537.2153,2438.719 C1536.1305,2435.2944 1535.3246,2431.196 1534.8876,2428.0752 C1534.4507,2424.9543 1534.3829,2422.8115 1534.3174,2418.9146 C1534.2518,2415.0178 1534.1886,2409.367 1534.162,2396.7869 C1534.109,2371.6267 1534.2028,2318.7495 1534.2032,2283.5103 C1527.937,2283.5063 1521.6709,2283.5022 1515.4048,2283.4985 C1515.4027,2320.622 1515.3116,2367.778 1515.3779,2397.1846 C1515.3944,2404.5361 1515.4209,2410.7783 1515.5448,2415.5886 C1515.6687,2420.399 1515.89,2423.7766 1516.1855,2427.0642 C1516.4811,2430.3518 1516.851,2433.5486 1517.2594,2436.2417 C1517.6676,2438.9348 1518.1147,2441.124 1518.8824,2443.608 C1520.418,2448.575 1523.2367,2454.72 1526.9407,2459.9478 C1530.6448,2465.1755 1535.2343,2469.4858 1540.4885,2473.1135 C1545.7427,2476.741 1551.6615,2479.6855 1558.355,2481.6184 C1565.0483,2483.5518 1572.5164,2484.4731 1579.4856,2484.4631 C1586.4548,2484.4531 1592.9253,2483.5115 1598.9092,2481.4775 C1604.8931,2479.4434 1610.3905,2476.3164 1615.2351,2472.494 C1620.0797,2468.6711 1624.2715,2464.1523 1627.5511,2459.4607 C1630.8308,2454.769 1633.1985,2449.9043 1634.945,2444.326 C1636.6914,2438.7478 1637.8168,2432.456 1638.6401,2425.7915 C1639.0516,2422.4592 1639.3878,2419.034 1639.5778,2414.3877 C1639.7678,2409.7412 1639.8116,2403.8738 1639.8439,2396.7822 C1639.9724,2368.4155 1639.9135,2320.4597 1639.9606,2283.5762 C1633.6945,2283.572 1627.4282,2283.568 1621.162,2283.5645 z" stroke="Black" stroke-width="0" fill="#B8B8B8" fill-opacity="1" />
    <path d="M361.5597,1685.16 C523.7055,1522.1912 685.8512,1359.2223 847.99695,1196.2535 C815.2386,1196.2535 782.48016,1196.2535 749.7218,1196.2535 C587.576,1359.2223 425.4303,1522.1912 263.28458,1685.16 C425.4303,1848.1288 587.576,2011.0975 749.7218,2174.0664 C782.48016,2174.0664 815.2386,2174.0664 847.99695,2174.0664 C685.8512,2011.0975 523.7055,1848.1288 361.5597,1685.16 z" stroke="Black" stroke-width="0" fill="#B8B8B8" fill-opacity="1" />
    <path d="M1118.9769,1615.3163 C1095.8131,1638.5974 1072.6495,1661.8787 1049.4858,1685.16 C1072.6495,1708.4413 1095.8131,1731.7225 1118.9769,1755.0038 C1161.6824,1755.0038 1204.4832,1755.004 1247.1649,1755.0038 C1289.8466,1755.0037 1332.4093,1755.0029 1375.3529,1755.0038 C1418.2965,1755.0045 1461.621,1755.0068 1503.0295,1755.0018 C1523.7339,1754.9994 1543.9591,1754.9951 1567.6349,1755.0038 C1591.3108,1755.0126 1618.437,1755.0342 1629.4585,1754.9952 C1637.7123,1754.9661 1636.9342,1754.9026 1638.0046,1754.7212 C1639.0752,1754.5399 1641.9941,1754.2406 1644.438,1753.8378 C1646.8817,1753.4349 1648.8503,1752.9287 1650.947,1752.3077 C1653.0437,1751.6868 1655.2684,1750.951 1657.438,1750.1 C1659.6078,1749.2488 1661.7225,1748.2821 1663.8079,1747.2012 C1665.8931,1746.1201 1667.949,1744.9249 1669.947,1743.6195 C1673.943,1741.0084 1677.7074,1737.9565 1681.116,1734.547 C1684.5245,1731.1375 1687.5773,1727.3701 1690.1879,1723.3792 C1692.7985,1719.3883 1694.9669,1715.174 1696.6688,1710.8691 C1698.3707,1706.5643 1699.6062,1702.169 1700.4067,1697.869 C1701.2072,1693.569 1701.5728,1689.3645 1701.5728,1685.16 C1701.5728,1680.9556 1701.2072,1676.7511 1700.4067,1672.451 C1699.6063,1668.1509 1698.3707,1663.7552 1696.6688,1659.4508 C1694.9669,1655.1465 1692.7983,1650.9336 1690.1884,1646.9415 C1688.8834,1644.9454 1687.4681,1643.0045 1685.9524,1641.1376 C1684.4368,1639.2706 1682.8206,1637.4775 1681.116,1635.773 C1679.4113,1634.0684 1677.618,1632.4521 1675.7513,1630.9365 C1673.8846,1629.421 1671.9446,1628.0062 1669.9481,1626.701 C1667.9517,1625.3958 1665.8988,1624.2001 1663.8079,1623.1188 C1661.7168,1622.0376 1659.5874,1621.0709 1657.438,1620.2201 C1656.3634,1619.7946 1655.2837,1619.398 1654.201,1619.0302 C1653.1185,1618.6624 1652.0331,1618.3231 1650.947,1618.0122 C1649.8608,1617.7014 1648.7742,1617.4188 1647.6886,1617.1641 C1646.603,1616.9093 1645.5187,1616.6823 1644.438,1616.4823 C1643.357,1616.2822 1642.28,1616.1091 1641.2059,1615.9622 C1640.6688,1615.8887 1640.1324,1615.8218 1639.6012,1615.7614 C1639.07,1615.7007 1638.5436,1615.6466 1638.0046,1615.5988 C1637.4657,1615.5509 1636.9141,1615.5093 1636.4181,1615.4738 C1635.9222,1615.4384 1635.4822,1615.4089 1634.8427,1615.3856 C1634.203,1615.3623 1633.3638,1615.3451 1633.5538,1615.3334 C1633.6488,1615.3275 1634.0011,1615.323 1632.5024,1615.3204 C1631.0035,1615.3179 1627.6538,1615.3171 1611.4197,1615.3168 C1573.7886,1615.3156 1466.9268,1615.3162 1375.3529,1615.3163 C1283.779,1615.3164 1207.493,1615.3162 1118.9769,1615.3163 z" stroke="Black" stroke-width="0" fill="#B8B8B8" fill-opacity="1" />
    <path d="M1344.9174,2322.698 C1350.0348,2318.6594 1355.1523,2314.6208 1360.27,2310.5828 C1351.6663,2298.3193 1343.5082,2289.898 1335.7953,2285.3186 C1328.0824,2280.7393 1319.7928,2278.4468 1310.9264,2278.4412 C1302.5715,2278.436 1294.8336,2280.4521 1287.7126,2284.4893 C1280.5916,2288.5264 1275.0682,2294.0525 1271.1426,2301.0674 C1267.2169,2308.0818 1265.2515,2315.853 1265.2466,2324.3804 C1265.2405,2335.1282 1268.5596,2345.1233 1275.2041,2354.3652 C1279.0374,2359.875 1288.7938,2368.808 1304.4735,2381.1648 C1320.0679,2393.4324 1330.8038,2403.9207 1336.6813,2412.6294 C1340.9403,2418.9385 1343.068,2425.38 1343.0642,2431.953 C1343.061,2437.7266 1341.6085,2443.1885 1338.707,2448.3386 C1335.8053,2453.4885 1331.5829,2457.5945 1326.0397,2460.6553 C1320.4965,2463.7163 1314.5703,2465.2449 1308.2617,2465.2412 C1293.5127,2465.2317 1280.5177,2454.4312 1269.2766,2432.8396 C1263.9463,2436.1672 1258.616,2439.495 1253.2858,2442.8228 C1261.1206,2457.7502 1269.6825,2468.3926 1278.9714,2474.7495 C1288.2605,2481.1062 1298.6171,2484.2883 1310.041,2484.2954 C1324.8752,2484.3044 1337.4744,2479.0715 1347.8389,2468.5967 C1358.2031,2458.1216 1363.3894,2445.7778 1363.3976,2431.566 C1363.4032,2421.706 1360.3823,2411.889 1354.3348,2402.1143 C1348.2876,2392.3396 1337.1256,2381.185 1320.8494,2368.6504 C1307.1295,2358.0715 1299.0342,2351.5378 1296.5634,2349.0493 C1292.0475,2344.3386 1288.9382,2339.9841 1287.2355,2335.9858 C1285.5327,2331.9875 1284.6825,2327.8564 1284.6849,2323.593 C1284.689,2316.576 1287.1008,2310.6704 1291.9204,2305.8767 C1296.7399,2301.0833 1302.9436,2298.6885 1310.5311,2298.6934 C1316.4137,2298.697 1321.8477,2300.255 1326.8333,2303.367 C1331.8188,2306.479 1337.8468,2312.9226 1344.9174,2322.698 z" stroke="Black" stroke-width="0" fill="#B8B8B8" fill-opacity="1" />
    <path d="M1426.4153,2479.438 C1432.8092,2479.442 1439.2034,2479.4458 1445.5973,2479.45 C1445.6312,2420.5137 1445.6649,2361.5776 1445.6989,2302.6416 C1459.6804,2302.6501 1473.662,2302.659 1487.6437,2302.6675 C1487.6473,2296.2722 1487.651,2289.8765 1487.6547,2283.4812 C1453.2974,2283.46 1418.9401,2283.4382 1384.5829,2283.417 C1384.5792,2289.8125 1384.5754,2296.208 1384.5718,2302.6033 C1398.5535,2302.612 1412.5352,2302.6208 1426.5167,2302.6296 C1426.4829,2361.5657 1426.449,2420.5017 1426.4153,2479.438 z" stroke="Black" stroke-width="0" fill="#B8B8B8" fill-opacity="1" />
    <path d="M889.6261,2385.17 C889.62244,2391.4768 889.6189,2397.7832 889.61523,2404.0898 C909.60724,2404.1025 929.5993,2404.115 949.5913,2404.1274 C947.1085,2422.246 939.17145,2436.9866 925.7801,2448.348 C912.38873,2459.7095 896.0167,2465.384 876.6642,2465.3718 C860.7217,2465.362 846.06024,2461.5557 832.6797,2453.9526 C819.29926,2446.3496 808.819,2435.906 801.2391,2422.6218 C793.65906,2409.3374 789.87335,2395.3228 789.8818,2380.578 C789.89,2366.188 793.5637,2352.5332 800.903,2339.6135 C808.24225,2326.6938 818.58514,2316.4631 831.9317,2308.9211 C845.27826,2301.3792 859.326,2297.613 874.0749,2297.622 C885.9251,2297.6294 898.0935,2300.4128 910.58,2305.9722 C923.0665,2311.5317 934.5498,2319.6885 945.02985,2330.443 C949.892,2325.6497 954.7543,2320.856 959.6165,2316.0623 C946.23926,2302.819 932.51886,2293.195 918.45544,2287.1904 C904.392,2281.186 889.3891,2278.1787 873.44666,2278.169 C853.753,2278.1567 836.10284,2282.6536 820.4963,2291.6597 C804.8897,2300.6658 792.6059,2313.1604 783.64514,2329.1436 C774.6843,2345.1267 770.19855,2362.4006 770.1879,2380.9653 C770.1736,2405.9253 777.9617,2427.9146 793.55225,2446.933 C813.8284,2471.6396 841.3584,2484.0034 876.1419,2484.0251 C904.7872,2484.043 927.6616,2475.1523 944.7652,2457.3535 C961.8688,2439.5542 970.5145,2415.51 970.70245,2385.2205 C943.677,2385.2036 916.65155,2385.1868 889.6261,2385.17 z" stroke="Black" stroke-width="0" fill="#B8B8B8" fill-opacity="1" />
    <path d="M448.12814,2478.8289 C483.80682,2478.8508 519.4856,2478.873 555.16425,2478.8953 C555.1679,2472.5 555.17163,2466.1042 555.17523,2459.709 C525.7627,2459.6907 496.3502,2459.6724 466.93762,2459.6538 C466.9523,2433.9832 466.96704,2408.3123 466.98178,2382.6416 C496.39435,2382.66 525.8069,2382.6782 555.2194,2382.6965 C555.22314,2376.3013 555.22675,2369.9058 555.23047,2363.5103 C525.81793,2363.492 496.4053,2363.4736 466.99277,2363.4553 C467.00452,2342.9807 467.01627,2322.5066 467.028,2302.032 C496.69635,2302.0505 526.3646,2302.069 556.03296,2302.0874 C556.0366,2295.692 556.04034,2289.2964 556.04395,2282.9011 C520.10956,2282.8787 484.17505,2282.8564 448.24057,2282.8337 C448.2031,2348.1653 448.16562,2413.497 448.12814,2478.8289 z" stroke="Black" stroke-width="0" fill="#B8B8B8" fill-opacity="1" />
    <path d="M1003.84033,1335.941 C888.022,1452.3473 772.20355,1568.7537 656.3852,1685.16 C772.20355,1801.5663 888.022,1917.9727 1003.84033,2034.379 C1056.1643,2034.379 1108.4888,2034.379 1160.8125,2034.379 C1213.1362,2034.379 1265.4594,2034.379 1317.7855,2034.379 C1343.9486,2034.3788 1370.1124,2034.3788 1396.2706,2034.379 C1422.429,2034.3793 1448.5815,2034.3796 1474.7567,2034.379 C1500.9321,2034.3783 1527.1301,2034.3765 1553.2117,2034.3806 C1566.2526,2034.3824 1579.2643,2034.386 1592.5791,2034.3743 C1599.2363,2034.3682 1605.9694,2034.3584 1612.1074,2034.379 C1618.2454,2034.3994 1623.7883,2034.4502 1629.0471,2034.4305 C1654.7753,2034.334 1673.7024,2032.5492 1694.9688,2028.5552 C1705.6018,2026.5583 1716.8197,2024.009 1727.8195,2020.8987 C1738.819,2017.7886 1749.6003,2014.1171 1760.3069,2009.8619 C1781.72,2001.3513 1802.8337,1990.5051 1822.825,1977.4547 C1842.8162,1964.4042 1861.6849,1949.1497 1878.707,1932.1014 C1912.7511,1898.005 1939.4084,1856.734 1956.4698,1813.689 C1965.0004,1792.1666 1971.132,1770.2007 1975.1177,1748.705 C1979.1035,1727.2092 1980.9434,1706.1837 1980.9478,1685.16 C1980.9523,1664.1364 1979.1213,1643.1145 1975.1177,1621.6151 C1971.1144,1600.1156 1964.9382,1578.1387 1956.4286,1556.6144 C1947.919,1535.0901 1937.0756,1514.0184 1924.0237,1494.064 C1910.9717,1474.1095 1895.7113,1455.2722 1878.6663,1438.2223 C1870.1438,1429.6974 1861.1752,1421.6191 1851.841,1414.0427 C1842.5067,1406.4664 1832.807,1399.3918 1822.825,1392.8654 C1812.8429,1386.3387 1802.5786,1380.3604 1792.1233,1374.9543 C1781.668,1369.5483 1771.0215,1364.715 1760.2747,1360.4602 C1754.9011,1358.3328 1749.5024,1356.3501 1744.0897,1354.5107 C1738.6769,1352.6714 1733.25,1350.9756 1727.8195,1349.4214 C1722.3888,1347.8671 1716.9546,1346.4543 1711.5273,1345.1804 C1706.0999,1343.9065 1700.6792,1342.7712 1695.2739,1341.7711 C1689.8687,1340.7709 1684.4785,1339.9058 1679.1173,1339.1711 C1676.4368,1338.8038 1673.7634,1338.4691 1671.0902,1338.1664 C1668.4172,1337.8638 1665.7444,1337.593 1663.1078,1337.3538 C1660.4713,1337.1143 1657.8711,1336.9064 1655.1749,1336.729 C1652.4786,1336.5516 1649.6864,1336.4049 1647.2972,1336.2882 C1644.908,1336.1716 1642.9216,1336.0851 1638.9451,1336.0269 C1636.9568,1335.9978 1634.4711,1335.9758 1635.5961,1335.9624 C1636.7211,1335.9491 1641.4568,1335.9442 1624.569,1335.9419 C1600.6006,1335.9386 1533.0751,1335.9403 1474.7567,1335.941 C1416.4385,1335.9418 1367.3274,1335.9414 1316.6338,1335.9413 C1215.2466,1335.9408 1107.5293,1335.9412 1003.84033,1335.941 z M1032.6245,1405.7849 C1131.5316,1405.7849 1234.402,1405.7847 1331.0443,1405.785 C1379.3655,1405.7852 1426.1294,1405.7854 1481.9528,1405.7849 C1537.7761,1405.7843 1602.6587,1405.7828 1625.5916,1405.7855 C1642.5261,1405.7872 1636.5858,1405.7913 1634.8226,1405.802 C1633.0594,1405.8127 1635.4734,1405.8302 1637.3107,1405.8535 C1640.9854,1405.8999 1642.3531,1405.9692 1644.1835,1406.0626 C1646.014,1406.1559 1648.307,1406.2733 1650.4857,1406.4153 C1652.6644,1406.5571 1654.7286,1406.7234 1656.832,1406.9149 C1658.9354,1407.1064 1661.0779,1407.323 1663.218,1407.5651 C1665.3582,1407.8073 1667.4961,1408.0751 1669.64,1408.3689 C1673.9281,1408.9565 1678.2405,1409.6488 1682.565,1410.449 C1686.8893,1411.2491 1691.2257,1412.1572 1695.5675,1413.1764 C1699.9094,1414.1956 1704.2568,1415.3256 1708.6012,1416.5691 C1712.9458,1417.8124 1717.2874,1419.1691 1721.6176,1420.6406 C1725.9478,1422.112 1730.2666,1423.6981 1734.5654,1425.4 C1743.163,1428.804 1751.6802,1432.6708 1760.0444,1436.9956 C1768.4087,1441.3203 1776.6201,1446.103 1784.6058,1451.3243 C1792.5914,1456.5454 1800.3512,1462.2052 1807.8185,1468.2662 C1815.2859,1474.3273 1822.4607,1480.7898 1829.2788,1487.6099 C1842.9148,1501.2498 1855.1233,1516.3197 1865.5647,1532.2832 C1876.0062,1548.2468 1884.6807,1565.1041 1891.4886,1582.3235 C1898.2966,1599.5428 1903.2382,1617.1244 1906.44,1634.3241 C1909.642,1651.5238 1911.104,1668.3419 1911.104,1685.16 C1911.104,1701.978 1909.6418,1718.7963 1906.44,1735.996 C1903.2382,1753.1957 1898.2968,1770.7771 1891.4886,1787.9965 C1884.6807,1805.216 1876.006,1822.0735 1865.5647,1838.0369 C1855.1235,1854.0002 1842.9155,1869.0695 1829.277,1882.708 C1815.6383,1896.3467 1800.569,1908.5544 1784.6058,1918.9957 C1768.6425,1929.437 1751.7854,1938.1118 1734.5494,1944.9221 C1725.9314,1948.3274 1717.2186,1951.2666 1708.6012,1953.751 C1699.9839,1956.2355 1691.4619,1958.2653 1682.565,1959.8711 C1673.6678,1961.4769 1664.396,1962.6587 1656.832,1963.405 C1649.2681,1964.1514 1643.412,1964.4622 1630.8925,1964.5529 C1621.1259,1964.6235 1607.3041,1964.5604 1594.2848,1964.5352 C1581.2657,1964.5098 1569.0494,1964.5223 1556.7218,1964.5295 C1532.0665,1964.5441 1506.9662,1964.5376 1481.9528,1964.5352 C1456.9395,1964.5327 1432.013,1964.5344 1407.0648,1964.5352 C1382.1166,1964.5358 1357.1467,1964.5355 1332.1799,1964.5354 C1282.2463,1964.5349 1232.3248,1964.5352 1182.4005,1964.5352 C1132.4763,1964.5353 1082.5493,1964.5352 1032.6245,1964.5352 C939.9698,1871.41 847.31506,1778.285 754.6604,1685.16 C847.31506,1592.0349 939.9698,1498.9099 1032.6245,1405.7849 z" stroke="Black" stroke-width="0" fill="#B8B8B8" fill-opacity="1" />
    <path d="M1061.4086,1475.6287 C991.91754,1545.4724 922.4265,1615.3163 852.9355,1685.16 C922.4265,1755.0038 991.91754,1824.8477 1061.4086,1894.6914 C1108.9347,1894.6914 1156.4633,1894.6914 1203.9888,1894.6914 C1251.5142,1894.6914 1299.0366,1894.6912 1346.5721,1894.6915 C1370.3398,1894.6917 1394.111,1894.6919 1417.8589,1894.6914 C1441.6067,1894.6909 1465.3313,1894.6896 1489.1488,1894.6914 C1512.9664,1894.6931 1536.8771,1894.6978 1560.3115,1894.6874 C1572.0287,1894.6821 1583.627,1894.6732 1596.0839,1894.6914 C1608.5408,1894.7095 1621.8564,1894.7548 1630.5037,1894.706 C1642.1477,1894.6405 1645.3269,1894.4047 1650.5563,1893.8438 C1655.7856,1893.283 1663.0652,1892.3972 1669.856,1891.1934 C1676.6466,1889.9895 1682.9484,1888.4673 1689.3832,1886.6031 C1695.8181,1884.7393 1702.3862,1882.5332 1708.8562,1879.9797 C1715.3264,1877.4265 1721.6985,1874.526 1727.9656,1871.2834 C1734.2327,1868.0406 1740.3947,1864.456 1746.3855,1860.5391 C1758.3676,1852.7052 1769.6648,1843.5424 1779.8899,1833.321 C1790.1151,1823.0997 1799.268,1811.82 1807.1058,1799.8176 C1814.9435,1787.8152 1821.4663,1775.0902 1826.5645,1762.2275 C1836.7609,1736.5024 1841.2593,1710.2272 1841.2748,1684.9216 C1841.2826,1672.2689 1840.1696,1659.8585 1837.7622,1647.0331 C1835.3549,1634.2075 1831.6532,1620.967 1826.5487,1608.0326 C1821.4443,1595.0983 1814.9373,1582.4701 1807.1058,1570.5023 C1799.2743,1558.5347 1790.1183,1547.2274 1779.8914,1536.9967 C1774.7778,1531.8815 1769.3967,1527.0353 1763.7963,1522.4897 C1758.1956,1517.9441 1752.3757,1513.6992 1746.3865,1509.7832 C1740.3972,1505.8672 1734.2388,1502.2803 1727.9656,1499.0366 C1721.6924,1495.7931 1715.3044,1492.893 1708.8562,1490.3401 C1705.6322,1489.0637 1702.3931,1487.874 1699.1454,1486.7705 C1695.8977,1485.6669 1692.6416,1484.6494 1689.3832,1483.7168 C1686.1248,1482.7842 1682.8643,1481.9366 1679.6079,1481.1724 C1676.3516,1480.4078 1673.0994,1479.7268 1669.856,1479.1267 C1666.6124,1478.5266 1663.3776,1478.0074 1660.1627,1477.5667 C1658.5554,1477.3462 1656.953,1477.1455 1655.3457,1476.9639 C1653.7385,1476.7822 1652.1263,1476.6198 1650.5563,1476.4762 C1648.9862,1476.3325 1647.4583,1476.2078 1645.7965,1476.1013 C1644.1348,1475.995 1642.3392,1475.907 1641.0698,1475.837 C1639.8004,1475.767 1639.0573,1475.715 1635.6713,1475.6802 C1633.9783,1475.6627 1631.6245,1475.6497 1634.0492,1475.6415 C1636.4738,1475.6334 1643.6768,1475.6304 1626.6477,1475.629 C1604.6948,1475.6272 1542.471,1475.6283 1489.1489,1475.6287 C1435.8267,1475.629 1391.4065,1475.6289 1345.456,1475.6288 C1253.5554,1475.6285 1155.5347,1475.6288 1061.4086,1475.6287 z M1090.1927,1545.4724 C1179.8173,1545.4724 1272.0942,1545.4724 1360.2029,1545.4725 C1404.2573,1545.4725 1447.2698,1545.4725 1496.345,1545.4724 C1545.4202,1545.4724 1600.5581,1545.4722 1620.7308,1545.4728 C1628.9707,1545.4729 1631.3768,1545.4733 1632.5015,1545.4746 C1633.6262,1545.476 1633.4695,1545.478 1633.4763,1545.481 C1633.4897,1545.4868 1634.157,1545.4954 1634.7625,1545.5068 C1635.9735,1545.5299 1636.9381,1545.5646 1637.9563,1545.6112 C1638.9742,1545.658 1640.0455,1545.7167 1641.1073,1545.7876 C1642.1691,1545.8585 1643.2214,1545.9418 1644.2804,1546.0375 C1645.3396,1546.1332 1646.4055,1546.2415 1647.4734,1546.3625 C1648.5415,1546.4836 1649.6115,1546.6176 1650.6841,1546.7645 C1652.8292,1547.0582 1654.9849,1547.4043 1657.147,1547.8044 C1659.309,1548.2045 1661.4772,1548.6586 1663.6482,1549.1681 C1665.8192,1549.6777 1667.9928,1550.2428 1670.1652,1550.8645 C1672.3374,1551.4862 1674.5082,1552.1646 1676.6733,1552.9003 C1678.8384,1553.636 1680.9977,1554.4292 1683.1472,1555.28 C1687.4459,1556.9819 1691.7046,1558.9154 1695.8866,1561.0778 C1700.0688,1563.2401 1704.1744,1565.6315 1708.1674,1568.2422 C1712.1602,1570.8528 1716.04,1573.6827 1719.7738,1576.7131 C1723.5073,1579.7435 1727.095,1582.9742 1730.5039,1586.3845 C1737.3218,1593.205 1743.4258,1600.7432 1748.6469,1608.7217 C1753.8678,1616.7001 1758.2059,1625.1189 1761.6088,1633.7417 C1765.0118,1642.3646 1767.4795,1651.1917 1769.0845,1659.7421 C1770.6895,1668.2924 1771.4313,1676.5659 1771.4261,1685.0011 C1771.4159,1701.8715 1768.4169,1719.3882 1761.6194,1736.5385 C1758.2205,1745.1135 1753.872,1753.5968 1748.6469,1761.5984 C1743.4216,1769.6001 1737.3197,1777.1199 1730.503,1783.9341 C1723.6862,1790.7483 1716.1547,1796.8568 1708.1667,1802.0793 C1704.1727,1804.6908 1700.0646,1807.0806 1695.8866,1809.2422 C1691.7086,1811.4038 1687.4608,1813.3374 1683.1472,1815.0398 C1678.8335,1816.7423 1674.4541,1818.2136 1670.1652,1819.4554 C1665.8761,1820.6973 1661.6776,1821.7096 1657.147,1822.5156 C1652.6162,1823.3215 1647.7534,1823.921 1644.2804,1824.2826 C1640.8075,1824.644 1638.7245,1824.7676 1629.3867,1824.8268 C1616.2179,1824.9102 1588.6201,1824.8656 1564.0369,1824.8477 C1539.4537,1824.8297 1517.8851,1824.8385 1495.8981,1824.8436 C1451.9241,1824.8539 1406.276,1824.8492 1360.9608,1824.8477 C1315.6456,1824.8458 1270.6632,1824.8472 1225.5768,1824.8477 C1180.4904,1824.848 1135.2999,1824.8474 1090.1927,1824.8477 C1043.8654,1778.285 997.5381,1731.7225 951.2107,1685.16 C997.5381,1638.5974 1043.8654,1592.0349 1090.1927,1545.4724 z" stroke="Black" stroke-width="0" fill="#B8B8B8" fill-opacity="1" />
    <path d="M675.98047,2310.1565 C667.37683,2297.893 659.2186,2289.4717 651.5058,2284.8923 C643.79297,2280.3132 635.50336,2278.0208 626.63696,2278.0151 C618.28204,2278.01 610.5441,2280.026 603.4231,2284.0632 C596.30206,2288.1003 590.77875,2293.626 586.853,2300.6409 C582.92737,2307.6558 580.9621,2315.427 580.95715,2323.954 C580.951,2334.7021 584.27014,2344.697 590.9147,2353.9392 C594.7479,2359.449 604.50433,2368.3818 620.18396,2380.7385 C635.7784,2393.0063 646.51434,2403.4946 652.39185,2412.203 C656.65094,2418.5125 658.77856,2424.9536 658.7748,2431.5266 C658.77155,2437.3003 657.31903,2442.7622 654.4175,2447.9124 C651.51587,2453.0625 647.29346,2457.168 641.75024,2460.2292 C636.207,2463.29 630.28094,2464.8188 623.97217,2464.8147 C609.22327,2464.8057 596.2283,2454.0051 584.9871,2432.4133 C579.65686,2435.741 574.32654,2439.0686 568.9963,2442.3962 C576.8311,2457.3242 585.393,2467.9663 594.682,2474.3232 C603.971,2480.6802 614.3276,2483.862 625.7515,2483.8691 C640.5857,2483.8784 653.18494,2478.6455 663.5493,2468.1707 C673.9137,2457.6953 679.0999,2445.3518 679.1081,2431.1396 C679.1138,2421.2798 676.09283,2411.463 670.0454,2401.6882 C663.99805,2391.9136 652.8362,2380.7588 636.5599,2368.224 C622.8401,2357.6455 614.7447,2351.1118 612.2738,2348.6228 C607.75806,2343.9124 604.64874,2339.5579 602.946,2335.5598 C601.24316,2331.5615 600.39307,2327.4304 600.3955,2323.167 C600.3995,2316.1494 602.81134,2310.2441 607.6309,2305.4504 C612.4505,2300.657 618.65405,2298.2625 626.2417,2298.267 C632.1242,2298.271 637.5582,2299.8289 642.5438,2302.941 C647.52936,2306.0527 653.5574,2312.4963 660.6278,2322.2717 C665.74536,2318.2334 670.8629,2314.1948 675.98047,2310.1565 z" stroke="Black" stroke-width="0" fill="#B8B8B8" fill-opacity="1" />
    <path d="M2029.9354,2278.8892 C2012.3613,2278.878 1996.0214,2283.4202 1980.9164,2292.5156 C1965.8113,2301.6108 1953.8822,2314.1946 1945.1292,2330.2666 C1936.376,2346.3386 1931.9941,2363.7903 1931.9833,2382.6213 C1931.967,2410.8682 1941.5507,2434.946 1960.734,2454.855 C1979.9172,2474.764 2003.4567,2484.7273 2031.352,2484.7446 C2058.9062,2484.7617 2082.2651,2474.7832 2101.4287,2454.8093 C2120.5925,2434.8354 2130.1824,2410.503 2130.1987,2381.8123 C2130.2153,2352.8547 2120.632,2328.466 2101.4487,2308.646 C2082.2654,2288.826 2058.4275,2278.907 2029.9354,2278.8892 z M2030.7557,2297.9429 C2044.9305,2297.9517 2058.3345,2301.7383 2070.9678,2309.3025 C2083.601,2316.867 2093.3936,2326.9404 2100.346,2339.5234 C2107.298,2352.1064 2110.77,2366.1765 2110.761,2381.7334 C2110.752,2397.3794 2107.2642,2411.6008 2100.297,2424.3977 C2093.3303,2437.1948 2083.6326,2447.2786 2071.204,2454.649 C2058.7754,2462.0193 2045.2605,2465.7 2030.6594,2465.691 C2008.7986,2465.6772 1990.1235,2457.6428 1974.6346,2441.5874 C1959.1456,2425.5322 1951.4077,2405.8586 1951.4211,2382.567 C1951.4302,2366.8323 1954.9395,2352.5667 1961.9489,2339.7703 C1968.9584,2326.974 1978.6987,2316.8015 1991.1703,2309.253 C2003.6416,2301.704 2016.8367,2297.934 2030.7557,2297.9429 z" stroke="Black" stroke-width="0" fill="#B8B8B8" fill-opacity="1" />
    <path d="M1878.458,2283.7246 C1878.4204,2349.0562 1878.383,2414.3877 1878.3456,2479.7195 C1884.6117,2479.7234 1890.8778,2479.727 1897.144,2479.7312 C1897.1815,2414.3994 1897.219,2349.0679 1897.2565,2283.736 C1890.9904,2283.7324 1884.7241,2283.7285 1878.458,2283.7246 z" stroke="Black" stroke-width="0" fill="#B8B8B8" fill-opacity="1" />
    <path d="M459.83487,1685.16 C621.98065,1848.1288 784.12634,2011.0975 946.27216,2174.0664 C1136.0751,2174.0664 1486.5784,2174.0664 1595.9111,2174.0664 C1661.3936,2174.0664 1640.3649,2174.0664 1631.9136,2174.0664 C1623.4624,2174.0664 1627.5886,2174.0664 1630.1235,2174.0664 C1635.1931,2174.0662 1633.8971,2174.0662 1633.1569,2174.066 C1631.6763,2174.0654 1632.4188,2174.0652 1632.966,2174.0645 C1634.0603,2174.0627 1634.3738,2174.0605 1634.762,2174.0576 C1635.5383,2174.0518 1636.6138,2174.0427 1637.6294,2174.0308 C1638.6453,2174.019 1639.6011,2174.0044 1640.572,2173.9866 C1641.543,2173.9688 1642.5287,2173.9482 1643.5094,2173.9248 C1644.4901,2173.9011 1645.4657,2173.8745 1646.4414,2173.8452 C1647.4172,2173.8157 1648.3931,2173.7834 1649.3679,2173.7483 C1651.3175,2173.678 1653.2631,2173.596 1655.2048,2173.5027 C1657.1467,2173.4092 1659.085,2173.3044 1661.0193,2173.1882 C1662.9536,2173.0723 1664.8842,2172.9448 1666.8107,2172.8062 C1668.7373,2172.6677 1670.6599,2172.518 1672.5786,2172.357 C1674.4972,2172.1963 1676.4119,2172.0242 1678.3224,2171.8413 C1682.1432,2171.4756 1685.9476,2171.0657 1689.735,2170.6133 C1693.5222,2170.1606 1697.2926,2169.665 1701.0441,2169.128 C1704.7954,2168.5906 1708.5278,2168.0117 1712.2451,2167.391 C1715.9623,2166.7705 1719.6642,2166.1084 1723.3368,2165.4077 C1731.3325,2163.8823 1739.1886,2162.1746 1746.8789,2160.3127 C1754.5692,2158.451 1762.0938,2156.4353 1769.4706,2154.262 C1776.8473,2152.0889 1784.0763,2149.7578 1791.0834,2147.3674 C1798.0903,2144.9768 1804.8752,2142.5269 1812.6676,2139.3877 C1826.5234,2133.8057 1843.5646,2126.044 1858.7831,2118.1448 C1874.0017,2110.2456 1887.3977,2102.209 1900.1542,2093.794 C1914.9264,2084.049 1928.8408,2073.797 1941.7323,2063.2178 C1948.1781,2057.928 1954.368,2052.5564 1960.2964,2047.1997 C1966.2249,2041.8431 1971.8918,2036.5015 1977.9849,2030.3552 C1988.8153,2019.4305 2000.9923,2005.9639 2011.718,1992.7928 C2022.4437,1979.6217 2031.7179,1966.7463 2040.3414,1953.5918 C2045.0704,1946.3778 2049.604,1939.0801 2053.8855,1931.7637 C2058.1672,1924.4473 2062.1973,1917.1122 2066.0186,1909.7155 C2073.661,1894.9224 2080.4692,1879.883 2086.4736,1864.6719 C2109.4307,1806.5117 2120.6355,1745.8358 2120.6355,1685.16 C2120.6355,1624.4841 2109.4307,1563.8083 2086.4736,1505.6482 C2080.4692,1490.4369 2073.661,1475.3977 2066.0186,1460.6045 C2062.1973,1453.2079 2058.1672,1445.8728 2053.8857,1438.5564 C2049.604,1431.2399 2045.0704,1423.9421 2040.3414,1416.7281 C2031.7179,1403.5737 2022.4437,1390.6982 2011.718,1377.5272 C2000.9923,1364.3562 1988.8153,1350.8895 1977.9849,1339.9646 C1971.8918,1333.8185 1966.2249,1328.4769 1960.2964,1323.1202 C1954.368,1317.7635 1948.1781,1312.3921 1941.7324,1307.1023 C1928.841,1296.523 1914.9264,1286.2709 1900.1542,1276.5261 C1887.3977,1268.111 1874.0017,1260.0742 1858.7831,1252.175 C1843.5646,1244.2759 1826.5234,1236.5144 1812.6676,1230.9325 C1804.8752,1227.7931 1798.0903,1225.3431 1791.0834,1222.9526 C1784.0763,1220.5621 1776.8473,1218.2312 1769.4706,1216.0579 C1762.0938,1213.8846 1754.5692,1211.869 1746.8789,1210.0072 C1739.1886,1208.1455 1731.3325,1206.4377 1723.3368,1204.9124 C1719.6642,1204.2117 1715.9623,1203.5496 1712.2451,1202.929 C1708.5278,1202.3085 1704.7954,1201.7294 1701.0441,1201.1921 C1697.2926,1200.6548 1693.5223,1200.1594 1689.735,1199.7068 C1685.9476,1199.2543 1682.1432,1198.8445 1678.3224,1198.4788 C1676.4119,1198.2959 1674.4972,1198.1239 1672.5786,1197.963 C1670.6599,1197.8021 1668.7373,1197.6523 1666.8108,1197.5138 C1664.8842,1197.3751 1662.9536,1197.2477 1661.0193,1197.1316 C1659.085,1197.0155 1657.1467,1196.9106 1655.2048,1196.8174 C1653.2631,1196.724 1651.3175,1196.6421 1649.3679,1196.5718 C1648.3931,1196.5365 1647.4172,1196.5043 1646.4415,1196.4749 C1645.4657,1196.4454 1644.4901,1196.419 1643.5094,1196.3954 C1642.5287,1196.3718 1641.543,1196.3511 1640.572,1196.3335 C1639.6012,1196.3158 1638.6453,1196.301 1637.6294,1196.2892 C1636.6138,1196.2772 1635.5383,1196.2684 1634.762,1196.2625 C1634.3738,1196.2595 1634.0603,1196.2573 1632.966,1196.2557 C1632.4188,1196.2549 1631.6764,1196.2544 1633.1569,1196.2542 C1633.8971,1196.2539 1635.1931,1196.2538 1630.1235,1196.2537 C1627.5886,1196.2537 1623.4624,1196.2535 1631.9136,1196.2535 C1640.3649,1196.2535 1661.3936,1196.2535 1595.9111,1196.2535 C1486.5784,1196.2535 1136.0751,1196.2535 946.27216,1196.2535 C784.12634,1359.2223 621.98065,1522.1912 459.83487,1685.16 z M558.11005,1685.16 C697.0921,1545.4724 836.07416,1405.7849 975.0563,1266.0973 C1083.5282,1266.0974 1196.0889,1266.097 1302.2242,1266.0975 C1355.2921,1266.0977 1406.7535,1266.0981 1467.5608,1266.0973 C1528.368,1266.0964 1598.521,1266.0942 1623.5801,1266.0984 C1640.4624,1266.1012 1636.8777,1266.1069 1636.3695,1266.1229 C1635.8612,1266.139 1638.4293,1266.1654 1640.5747,1266.2003 C1644.8654,1266.27 1647.4647,1266.3739 1650.4109,1266.5139 C1653.3569,1266.6539 1656.6498,1266.8301 1659.864,1267.0428 C1663.0784,1267.2556 1666.2141,1267.5052 1669.3837,1267.7924 C1672.5531,1268.0796 1675.7563,1268.4044 1678.9625,1268.7677 C1682.1687,1269.1309 1685.3774,1269.5325 1688.5946,1269.9734 C1695.029,1270.855 1701.4966,1271.8931 1707.9829,1273.0934 C1714.4691,1274.2936 1720.974,1275.6559 1727.4869,1277.1844 C1733.9999,1278.7133 1740.5208,1280.4084 1747.0375,1282.2736 C1753.5542,1284.1387 1760.0665,1286.1737 1766.5619,1288.381 C1773.0571,1290.588 1779.5355,1292.9673 1785.9836,1295.5203 C1798.88,1300.626 1811.6558,1306.4261 1824.2021,1312.9133 C1836.7485,1319.4005 1849.0657,1326.5746 1861.0442,1334.4064 C1873.0226,1342.2382 1884.6624,1350.7278 1895.8634,1359.8193 C1907.0643,1368.911 1917.8268,1378.6047 1928.0537,1388.8347 C1948.5076,1409.2947 1966.8204,1431.8994 1982.4825,1455.8448 C1998.1449,1479.7902 2011.1566,1505.0762 2021.3687,1530.9053 C2031.5806,1556.7344 2038.9929,1583.1064 2043.7954,1608.9061 C2048.5984,1634.7057 2050.7915,1659.9329 2050.7915,1685.16 C2050.7915,1710.3872 2048.5986,1735.6143 2043.7954,1761.414 C2038.9927,1787.2135 2031.5801,1813.5857 2021.3687,1839.4147 C2011.1569,1865.2439 1998.146,1890.53 1982.4825,1914.4752 C1966.819,1938.4204 1948.5027,1961.0244 1928.051,1981.4822 C1907.5994,2001.9398 1885.0121,2020.2509 1861.0442,2035.9137 C1837.0762,2051.5762 1811.7275,2064.5903 1785.9836,2074.7996 C1760.2399,2085.0088 1734.101,2092.413 1707.871,2097.237 C1694.7559,2099.649 1681.6182,2101.4155 1669.3835,2102.5276 C1657.149,2103.6396 1645.8179,2104.0964 1631.4597,2104.2422 C1619.1826,2104.367 1604.6924,2104.264 1590.6869,2104.2227 C1576.6814,2104.1814 1563.1608,2104.202 1549.5729,2104.2136 C1522.3972,2104.2373 1494.9528,2104.2268 1467.5608,2104.2227 C1440.1687,2104.2188 1412.8292,2104.2217 1385.4767,2104.2227 C1358.124,2104.2239 1330.7584,2104.2231 1303.3945,2104.223 C1248.6667,2104.2222 1193.9464,2104.2227 1139.2245,2104.2227 C1084.5023,2104.2227 1029.7786,2104.2227 975.0563,2104.2227 C836.07416,1964.5352 697.0921,1824.8477 558.11005,1685.16 z" stroke="Black" stroke-width="0" fill="#B8B8B8" fill-opacity="1" />
    <path d="M734.9645,2479.0073 C735.00195,2413.6758 735.0394,2348.344 735.0769,2283.0125 C728.8107,2283.0088 722.5446,2283.0046 716.2785,2283.0007 C716.24097,2348.3325 716.2035,2413.664 716.166,2478.9956 C722.4322,2478.9995 728.6983,2479.0034 734.9645,2479.0073 z" stroke="Black" stroke-width="0" fill="#B8B8B8" fill-opacity="1" />
    <path d="M253.22256,2282.7124 C253.18506,2348.044 253.14758,2413.3755 253.11012,2478.707 C263.10016,2478.7107 273.02576,2478.726 283.05258,2478.7224 C288.066,2478.7205 293.1047,2478.7139 297.99622,2478.7354 C302.88773,2478.7566 307.63208,2478.8057 312.95828,2478.7446 C318.2845,2478.6833 324.19257,2478.512 329.56314,2478.0886 C334.93375,2477.6655 339.76685,2476.9905 344.26715,2476.101 C353.26773,2474.322 360.93707,2471.6848 367.63336,2468.1194 C374.32965,2464.5542 380.0529,2460.0608 385.32068,2454.54 C390.58844,2449.0193 395.40073,2442.471 399.36673,2435.0957 C403.3327,2427.7207 406.45242,2419.519 408.54004,2410.952 C410.62766,2402.385 411.68323,2393.453 411.60904,2383.2734 C411.5349,2373.0938 410.331,2361.6665 407.77487,2351.5269 C405.21872,2341.387 401.31033,2332.535 396.23315,2324.5051 C391.156,2316.4758 384.91003,2309.269 377.87723,2303.4966 C374.36078,2300.6104 370.6476,2298.0828 366.4095,2295.757 C362.17133,2293.4316 357.40823,2291.3079 353.47693,2289.8364 C349.5457,2288.365 346.4462,2287.5454 342.50497,2286.7402 C338.56372,2285.9348 333.78067,2285.1436 328.63916,2284.525 C323.49765,2283.9058 317.99765,2283.4595 311.87955,2283.1904 C305.76147,2282.9211 299.0253,2282.8298 293.77057,2282.7764 C283.26108,2282.6692 278.6773,2282.7146 272.72433,2282.7246 C266.77142,2282.7344 259.4493,2282.7095 253.22256,2282.7124 z M271.2427,2301.9102 C275.6759,2301.9128 280.10913,2301.9158 284.5423,2301.9182 C311.56775,2301.935 330.96194,2303.8113 342.7248,2307.5466 C358.40866,2312.5264 370.6373,2321.7195 379.41077,2335.126 C388.1842,2348.5325 392.5655,2364.688 392.55466,2383.5925 C392.5443,2401.609 388.48602,2416.8494 380.37976,2429.3142 C372.2735,2441.7788 361.14294,2450.4028 346.98807,2455.1865 C336.92615,2458.553 318.894,2460.228 292.8916,2460.2117 C285.64505,2460.2073 278.39847,2460.2026 271.1519,2460.1982 C271.1822,2407.4355 271.21246,2354.6729 271.2427,2301.9102 z" stroke="Black" stroke-width="0" fill="#B8B8B8" fill-opacity="1" />
    <path d="M1686.2534,2283.605 C1686.2158,2348.9365 1686.1783,2414.268 1686.1409,2479.5996 C1696.131,2479.6028 1706.0565,2479.6187 1716.0835,2479.6147 C1721.0968,2479.613 1726.1355,2479.6064 1731.0271,2479.6277 C1735.9186,2479.649 1740.6628,2479.698 1745.9891,2479.637 C1751.3153,2479.5757 1757.2234,2479.4043 1762.594,2478.9812 C1767.9646,2478.5579 1772.7976,2477.883 1777.298,2476.9934 C1786.2986,2475.2144 1793.9679,2472.5771 1800.6642,2469.012 C1807.3605,2465.4465 1813.0837,2460.9531 1818.3514,2455.4326 C1823.6193,2449.9119 1828.4315,2443.3633 1832.3976,2435.9883 C1836.3635,2428.6133 1839.4832,2420.4111 1841.5708,2411.8445 C1843.6584,2403.2776 1844.7141,2394.3455 1844.6399,2384.1658 C1844.5657,2373.9863 1843.3618,2362.559 1840.8057,2352.4192 C1838.2495,2342.2795 1834.3411,2333.4272 1829.2639,2325.3977 C1824.1868,2317.3682 1817.9408,2310.1614 1810.9081,2304.3892 C1807.3916,2301.5027 1803.6783,2298.975 1799.4403,2296.6494 C1795.2021,2294.324 1790.439,2292.2004 1786.5077,2290.729 C1782.5764,2289.2576 1779.4769,2288.438 1775.5356,2287.6326 C1771.5946,2286.8274 1766.8114,2286.0361 1761.6699,2285.4172 C1756.5284,2284.7983 1751.0284,2284.3518 1744.9104,2284.0828 C1738.7922,2283.8137 1732.0562,2283.7224 1726.8014,2283.669 C1716.2919,2283.5618 1711.7081,2283.607 1705.7551,2283.6172 C1699.8022,2283.627 1692.4801,2283.6018 1686.2534,2283.605 z M1725.9224,2461.1042 C1718.6759,2461.0996 1711.4293,2461.0952 1704.1827,2461.0908 C1704.2129,2408.3281 1704.2433,2355.5654 1704.2736,2302.8025 C1708.7067,2302.8054 1713.1399,2302.8079 1717.5731,2302.8108 C1744.5985,2302.8276 1763.9927,2304.7036 1775.7556,2308.4387 C1791.4395,2313.419 1803.6681,2322.612 1812.4415,2336.0186 C1821.2151,2349.4248 1825.5963,2365.5803 1825.5854,2384.485 C1825.5751,2402.5015 1821.5168,2417.742 1813.4106,2430.2068 C1805.3042,2442.6711 1794.1737,2451.2954 1780.0188,2456.0789 C1769.957,2459.4453 1751.9248,2461.1204 1725.9224,2461.1042 z" stroke="Black" stroke-width="0" fill="#B8B8B8" fill-opacity="1" />
    <path d="M1686.2534,2283.605 C1686.2158,2348.9365 1686.1783,2414.268 1686.1409,2479.5996 C1696.131,2479.6028 1706.0565,2479.6187 1716.0835,2479.6147 C1721.0968,2479.613 1726.1355,2479.6064 1731.0271,2479.6277 C1735.9186,2479.649 1740.6628,2479.698 1745.9891,2479.637 C1751.3153,2479.5757 1757.2234,2479.4043 1762.594,2478.9812 C1767.9646,2478.5579 1772.7976,2477.883 1777.298,2476.9934 C1786.2986,2475.2144 1793.9679,2472.5771 1800.6642,2469.012 C1807.3605,2465.4465 1813.0837,2460.9531 1818.3514,2455.4326 C1823.6193,2449.9119 1828.4315,2443.3633 1832.3976,2435.9883 C1836.3635,2428.6133 1839.4832,2420.4111 1841.5708,2411.8445 C1843.6584,2403.2776 1844.7141,2394.3455 1844.6399,2384.1658 C1844.5657,2373.9863 1843.3618,2362.559 1840.8057,2352.4192 C1838.2495,2342.2795 1834.3411,2333.4272 1829.2639,2325.3977 C1824.1868,2317.3682 1817.9408,2310.1614 1810.9081,2304.3892 C1807.3916,2301.5027 1803.6783,2298.975 1799.4403,2296.6494 C1795.2021,2294.324 1790.439,2292.2004 1786.5077,2290.729 C1782.5764,2289.2576 1779.4769,2288.438 1775.5356,2287.6326 C1771.5946,2286.8274 1766.8114,2286.0361 1761.6699,2285.4172 C1756.5284,2284.7983 1751.0284,2284.3518 1744.9104,2284.0828 C1738.7922,2283.8137 1732.0562,2283.7224 1726.8014,2283.669 C1716.2919,2283.5618 1711.7081,2283.607 1705.7551,2283.6172 C1699.8022,2283.627 1692.4801,2283.6018 1686.2534,2283.605 z" stroke="#B8B8B8" stroke-width="0.24" stroke-linecap="round" stroke-linejoin="round" fill="none" />
    <path d="M1725.9224,2461.1042 C1751.9248,2461.1204 1769.957,2459.4453 1780.0188,2456.0789 C1794.1737,2451.2954 1805.3042,2442.6711 1813.4106,2430.2068 C1821.5168,2417.742 1825.5751,2402.5015 1825.5854,2384.485 C1825.5963,2365.5803 1821.2151,2349.4248 1812.4415,2336.0186 C1803.6681,2322.612 1791.4395,2313.419 1775.7556,2308.4387 C1763.9927,2304.7036 1744.5985,2302.8276 1717.5731,2302.8108 C1713.1399,2302.8079 1708.7067,2302.8054 1704.2736,2302.8025 C1704.2433,2355.5654 1704.2129,2408.3281 1704.1827,2461.0908 C1711.4293,2461.0952 1718.6759,2461.0996 1725.9224,2461.1042 z" stroke="#B8B8B8" stroke-width="0.24" stroke-linecap="round" stroke-linejoin="round" fill="none" />
    <path d="M1878.458,2283.7246 L1878.3456,2479.7195 L1897.144,2479.7312 L1897.2565,2283.736 z" stroke="#B8B8B8" stroke-width="0.24" stroke-linecap="round" stroke-linejoin="round" fill="none" />
    <path d="M2030.7557,2297.9429 C2016.8367,2297.934 2003.6416,2301.704 1991.1703,2309.253 C1978.6987,2316.8015 1968.9584,2326.974 1961.9489,2339.7703 C1954.9395,2352.5667 1951.4302,2366.8323 1951.4211,2382.567 C1951.4077,2405.8586 1959.1456,2425.5322 1974.6346,2441.5874 C1990.1235,2457.6428 2008.7986,2465.6772 2030.6594,2465.691 C2045.2605,2465.7 2058.7754,2462.0193 2071.204,2454.649 C2083.6326,2447.2786 2093.3303,2437.1948 2100.297,2424.3977 C2107.2642,2411.6008 2110.752,2397.3794 2110.761,2381.7334 C2110.77,2366.1765 2107.298,2352.1064 2100.346,2339.5234 C2093.3936,2326.9404 2083.601,2316.867 2070.9678,2309.3025 C2058.3345,2301.7383 2044.9305,2297.9517 2030.7557,2297.9429 z" stroke="#B8B8B8" stroke-width="0.24" stroke-linecap="round" stroke-linejoin="round" fill="none" />
    <path d="M558.11005,1685.16 C697.0921,1824.8477 836.07416,1964.5352 975.0563,2104.2227 C1029.7786,2104.2227 1084.5023,2104.2227 1139.2245,2104.2227 C1193.9464,2104.2227 1248.6667,2104.2222 1303.3945,2104.223 C1330.7584,2104.2231 1358.124,2104.2239 1385.4767,2104.2227 C1412.8292,2104.2217 1440.1687,2104.2188 1467.5608,2104.2227 C1494.9528,2104.2268 1522.3972,2104.2373 1549.5729,2104.2136 C1563.1608,2104.202 1576.6814,2104.1814 1590.6869,2104.2227 C1604.6924,2104.264 1619.1826,2104.367 1631.4597,2104.2422 C1645.8179,2104.0964 1657.149,2103.6396 1669.3835,2102.5276 C1681.6182,2101.4155 1694.7559,2099.649 1707.871,2097.237 C1734.101,2092.413 1760.2399,2085.0088 1785.9836,2074.7996 C1811.7275,2064.5903 1837.0762,2051.5762 1861.0442,2035.9137 C1885.0121,2020.2509 1907.5994,2001.9398 1928.051,1981.4822 C1948.5027,1961.0244 1966.819,1938.4204 1982.4825,1914.4752 C1998.146,1890.53 2011.1569,1865.2439 2021.3687,1839.4147 C2031.5801,1813.5857 2038.9927,1787.2135 2043.7954,1761.414 C2048.5986,1735.6143 2050.7915,1710.3872 2050.7915,1685.16 C2050.7915,1659.9329 2048.5984,1634.7057 2043.7954,1608.9061 C2038.9929,1583.1064 2031.5806,1556.7344 2021.3687,1530.9053 C2011.1566,1505.0762 1998.1449,1479.7902 1982.4825,1455.8448 C1966.8204,1431.8994 1948.5076,1409.2947 1928.0537,1388.8347 C1917.8268,1378.6047 1907.0643,1368.911 1895.8634,1359.8193 C1884.6624,1350.7278 1873.0226,1342.2382 1861.0442,1334.4064 C1849.0657,1326.5746 1836.7485,1319.4005 1824.2021,1312.9133 C1811.6558,1306.4261 1798.88,1300.626 1785.9836,1295.5203 C1779.5355,1292.9673 1773.0571,1290.588 1766.5619,1288.381 C1760.0665,1286.1737 1753.5542,1284.1387 1747.0375,1282.2736 C1740.5208,1280.4084 1733.9999,1278.7133 1727.4869,1277.1844 C1720.974,1275.6559 1714.4691,1274.2936 1707.9829,1273.0934 C1701.4966,1271.8931 1695.029,1270.855 1688.5946,1269.9734 C1685.3774,1269.5325 1682.1687,1269.1309 1678.9625,1268.7677 C1675.7563,1268.4044 1672.5531,1268.0796 1669.3837,1267.7924 C1666.2141,1267.5052 1663.0784,1267.2556 1659.864,1267.0428 C1656.6498,1266.8301 1653.3569,1266.6539 1650.4109,1266.5139 C1647.4647,1266.3739 1644.8654,1266.27 1640.5747,1266.2003 C1638.4293,1266.1654 1635.8612,1266.139 1636.3695,1266.1229 C1636.8777,1266.1069 1640.4624,1266.1012 1623.5801,1266.0984 C1598.521,1266.0942 1528.368,1266.0964 1467.5608,1266.0973 C1406.7535,1266.0981 1355.2921,1266.0977 1302.2242,1266.0975 C1196.0889,1266.097 1083.5282,1266.0974 975.0563,1266.0973 C836.07416,1405.7849 697.0921,1545.4724 558.11005,1685.16 z" stroke="#B8B8B8" stroke-width="0.24" stroke-linecap="round" stroke-linejoin="round" fill="none" />
    <path d="M459.83487,1685.16 C621.98065,1848.1288 784.12634,2011.0975 946.27216,2174.0664 C1136.0751,2174.0664 1486.5784,2174.0664 1595.9111,2174.0664 C1661.3936,2174.0664 1640.3649,2174.0664 1631.9136,2174.0664 C1623.4624,2174.0664 1627.5886,2174.0664 1630.1235,2174.0664 C1635.1931,2174.0662 1633.8971,2174.0662 1633.1569,2174.066 C1631.6763,2174.0654 1632.4188,2174.0652 1632.966,2174.0645 C1634.0603,2174.0627 1634.3738,2174.0605 1634.762,2174.0576 C1635.5383,2174.0518 1636.6138,2174.0427 1637.6294,2174.0308 C1638.6453,2174.019 1639.6011,2174.0044 1640.572,2173.9866 C1641.543,2173.9688 1642.5287,2173.9482 1643.5094,2173.9248 C1644.4901,2173.9011 1645.4657,2173.8745 1646.4414,2173.8452 C1647.4172,2173.8157 1648.3931,2173.7834 1649.3679,2173.7483 C1651.3175,2173.678 1653.2631,2173.596 1655.2048,2173.5027 C1657.1467,2173.4092 1659.085,2173.3044 1661.0193,2173.1882 C1662.9536,2173.0723 1664.8842,2172.9448 1666.8107,2172.8062 C1668.7373,2172.6677 1670.6599,2172.518 1672.5786,2172.357 C1674.4972,2172.1963 1676.4119,2172.0242 1678.3224,2171.8413 C1682.1432,2171.4756 1685.9476,2171.0657 1689.735,2170.6133 C1693.5222,2170.1606 1697.2926,2169.665 1701.0441,2169.128 C1704.7954,2168.5906 1708.5278,2168.0117 1712.2451,2167.391 C1715.9623,2166.7705 1719.6642,2166.1084 1723.3368,2165.4077 C1731.3325,2163.8823 1739.1886,2162.1746 1746.8789,2160.3127 C1754.5692,2158.451 1762.0938,2156.4353 1769.4706,2154.262 C1776.8473,2152.0889 1784.0763,2149.7578 1791.0834,2147.3674 C1798.0903,2144.9768 1804.8752,2142.5269 1812.6676,2139.3877 C1826.5234,2133.8057 1843.5646,2126.044 1858.7831,2118.1448 C1874.0017,2110.2456 1887.3977,2102.209 1900.1542,2093.794 C1914.9264,2084.049 1928.8408,2073.797 1941.7323,2063.2178 C1948.1781,2057.928 1954.368,2052.5564 1960.2964,2047.1997 C1966.2249,2041.8431 1971.8918,2036.5015 1977.9849,2030.3552 C1988.8153,2019.4305 2000.9923,2005.9639 2011.718,1992.7928 C2022.4437,1979.6217 2031.7179,1966.7463 2040.3414,1953.5918 C2045.0704,1946.3778 2049.604,1939.0801 2053.8855,1931.7637 C2058.1672,1924.4473 2062.1973,1917.1122 2066.0186,1909.7155 C2073.661,1894.9224 2080.4692,1879.883 2086.4736,1864.6719 C2109.4307,1806.5117 2120.6355,1745.8358 2120.6355,1685.16 C2120.6355,1624.4841 2109.4307,1563.8083 2086.4736,1505.6482 C2080.4692,1490.4369 2073.661,1475.3977 2066.0186,1460.6045 C2062.1973,1453.2079 2058.1672,1445.8728 2053.8857,1438.5564 C2049.604,1431.2399 2045.0704,1423.9421 2040.3414,1416.7281 C2031.7179,1403.5737 2022.4437,1390.6982 2011.718,1377.5272 C2000.9923,1364.3562 1988.8153,1350.8895 1977.9849,1339.9646 C1971.8918,1333.8185 1966.2249,1328.4769 1960.2964,1323.1202 C1954.368,1317.7635 1948.1781,1312.3921 1941.7324,1307.1023 C1928.841,1296.523 1914.9264,1286.2709 1900.1542,1276.5261 C1887.3977,1268.111 1874.0017,1260.0742 1858.7831,1252.175 C1843.5646,1244.2759 1826.5234,1236.5144 1812.6676,1230.9325 C1804.8752,1227.7931 1798.0903,1225.3431 1791.0834,1222.9526 C1784.0763,1220.5621 1776.8473,1218.2312 1769.4706,1216.0579 C1762.0938,1213.8846 1754.5692,1211.869 1746.8789,1210.0072 C1739.1886,1208.1455 1731.3325,1206.4377 1723.3368,1204.9124 C1719.6642,1204.2117 1715.9623,1203.5496 1712.2451,1202.929 C1708.5278,1202.3085 1704.7954,1201.7294 1701.0441,1201.1921 C1697.2926,1200.6548 1693.5223,1200.1594 1689.735,1199.7068 C1685.9476,1199.2543 1682.1432,1198.8445 1678.3224,1198.4788 C1676.4119,1198.2959 1674.4972,1198.1239 1672.5786,1197.963 C1670.6599,1197.8021 1668.7373,1197.6523 1666.8108,1197.5138 C1664.8842,1197.3751 1662.9536,1197.2477 1661.0193,1197.1316 C1659.085,1197.0155 1657.1467,1196.9106 1655.2048,1196.8174 C1653.2631,1196.724 1651.3175,1196.6421 1649.3679,1196.5718 C1648.3931,1196.5365 1647.4172,1196.5043 1646.4415,1196.4749 C1645.4657,1196.4454 1644.4901,1196.419 1643.5094,1196.3954 C1642.5287,1196.3718 1641.543,1196.3511 1640.572,1196.3335 C1639.6012,1196.3158 1638.6453,1196.301 1637.6294,1196.2892 C1636.6138,1196.2772 1635.5383,1196.2684 1634.762,1196.2625 C1634.3738,1196.2595 1634.0603,1196.2573 1632.966,1196.2557 C1632.4188,1196.2549 1631.6764,1196.2544 1633.1569,1196.2542 C1633.8971,1196.2539 1635.1931,1196.2538 1630.1235,1196.2537 C1627.5886,1196.2537 1623.4624,1196.2535 1631.9136,1196.2535 C1640.3649,1196.2535 1661.3936,1196.2535 1595.9111,1196.2535 C1486.5784,1196.2535 1136.0751,1196.2535 946.27216,1196.2535 C784.12634,1359.2223 621.98065,1522.1912 459.83487,1685.16 z" stroke="#B8B8B8" stroke-width="0.24" stroke-linecap="round" stroke-linejoin="round" fill="none" />
    <path d="M361.5597,1685.16 L847.99695,1196.2535 L749.7218,1196.2535 L263.28458,1685.16 L749.7218,2174.0664 L847.99695,2174.0664 z" stroke="#B8B8B8" stroke-width="0.24" stroke-linecap="round" stroke-linejoin="round" fill="none" />
    <path d="M1090.1927,1545.4724 C1043.8654,1592.0349 997.5381,1638.5974 951.2107,1685.16 C997.5381,1731.7225 1043.8654,1778.285 1090.1927,1824.8477 C1135.2999,1824.8474 1180.4904,1824.848 1225.5768,1824.8477 C1270.6632,1824.8472 1315.6456,1824.8458 1360.9608,1824.8477 C1406.276,1824.8492 1451.9241,1824.8539 1495.8981,1824.8436 C1517.8851,1824.8385 1539.4537,1824.8297 1564.0369,1824.8477 C1588.6201,1824.8656 1616.2179,1824.9102 1629.3867,1824.8268 C1638.7245,1824.7676 1640.8075,1824.644 1644.2804,1824.2826 C1647.7534,1823.921 1652.6162,1823.3215 1657.147,1822.5156 C1661.6776,1821.7096 1665.8761,1820.6973 1670.1652,1819.4554 C1674.4541,1818.2136 1678.8335,1816.7423 1683.1472,1815.0398 C1687.4608,1813.3374 1691.7086,1811.4038 1695.8866,1809.2422 C1700.0646,1807.0806 1704.1727,1804.6908 1708.1667,1802.0793 C1716.1547,1796.8568 1723.6862,1790.7483 1730.503,1783.9341 C1737.3197,1777.1199 1743.4216,1769.6001 1748.6469,1761.5984 C1753.872,1753.5968 1758.2205,1745.1135 1761.6194,1736.5385 C1768.4169,1719.3882 1771.4159,1701.8715 1771.4261,1685.0011 C1771.4313,1676.5659 1770.6895,1668.2924 1769.0845,1659.7421 C1767.4795,1651.1917 1765.0118,1642.3646 1761.6088,1633.7417 C1758.2059,1625.1189 1753.8678,1616.7001 1748.6469,1608.7217 C1743.4258,1600.7432 1737.3218,1593.205 1730.5039,1586.3845 C1727.095,1582.9742 1723.5073,1579.7435 1719.7738,1576.7131 C1716.04,1573.6827 1712.1602,1570.8528 1708.1674,1568.2422 C1704.1744,1565.6315 1700.0688,1563.2401 1695.8866,1561.0778 C1691.7046,1558.9154 1687.4459,1556.9819 1683.1472,1555.28 C1680.9977,1554.4292 1678.8384,1553.636 1676.6733,1552.9003 C1674.5082,1552.1646 1672.3374,1551.4862 1670.1652,1550.8645 C1667.9928,1550.2428 1665.8192,1549.6777 1663.6482,1549.1681 C1661.4772,1548.6586 1659.309,1548.2045 1657.147,1547.8044 C1654.9849,1547.4043 1652.8292,1547.0582 1650.6841,1546.7645 C1649.6115,1546.6176 1648.5415,1546.4836 1647.4734,1546.3625 C1646.4055,1546.2415 1645.3396,1546.1332 1644.2804,1546.0375 C1643.2214,1545.9418 1642.1691,1545.8585 1641.1073,1545.7876 C1640.0455,1545.7167 1638.9742,1545.658 1637.9563,1545.6112 C1636.9381,1545.5646 1635.9735,1545.5299 1634.7625,1545.5068 C1634.157,1545.4954 1633.4897,1545.4868 1633.4763,1545.481 C1633.4695,1545.478 1633.6262,1545.476 1632.5015,1545.4746 C1631.3768,1545.4733 1628.9707,1545.4729 1620.7308,1545.4728 C1600.5581,1545.4722 1545.4202,1545.4724 1496.345,1545.4724 C1447.2698,1545.4725 1404.2573,1545.4725 1360.2029,1545.4725 C1272.0942,1545.4724 1179.8173,1545.4724 1090.1927,1545.4724 z" stroke="#B8B8B8" stroke-width="0.24" stroke-linecap="round" stroke-linejoin="round" fill="none" />
    <path d="M2029.9354,2278.8892 C2012.3613,2278.878 1996.0214,2283.4202 1980.9164,2292.5156 C1965.8113,2301.6108 1953.8822,2314.1946 1945.1292,2330.2666 C1936.376,2346.3386 1931.9941,2363.7903 1931.9833,2382.6213 C1931.967,2410.8682 1941.5507,2434.946 1960.734,2454.855 C1979.9172,2474.764 2003.4567,2484.7273 2031.352,2484.7446 C2058.9062,2484.7617 2082.2651,2474.7832 2101.4287,2454.8093 C2120.5925,2434.8354 2130.1824,2410.503 2130.1987,2381.8123 C2130.2153,2352.8547 2120.632,2328.466 2101.4487,2308.646 C2082.2654,2288.826 2058.4275,2278.907 2029.9354,2278.8892 z" stroke="#B8B8B8" stroke-width="0.24" stroke-linecap="round" stroke-linejoin="round" fill="none" />
    <path d="M1061.4086,1475.6287 C991.91754,1545.4724 922.4265,1615.3163 852.9355,1685.16 C922.4265,1755.0038 991.91754,1824.8477 1061.4086,1894.6914 C1108.9347,1894.6914 1156.4633,1894.6914 1203.9888,1894.6914 C1251.5142,1894.6914 1299.0366,1894.6912 1346.5721,1894.6915 C1370.3398,1894.6917 1394.111,1894.6919 1417.8589,1894.6914 C1441.6067,1894.6909 1465.3313,1894.6896 1489.1488,1894.6914 C1512.9664,1894.6931 1536.8771,1894.6978 1560.3115,1894.6874 C1572.0287,1894.6821 1583.627,1894.6732 1596.0839,1894.6914 C1608.5408,1894.7095 1621.8564,1894.7548 1630.5037,1894.706 C1642.1477,1894.6405 1645.3269,1894.4047 1650.5563,1893.8438 C1655.7856,1893.283 1663.0652,1892.3972 1669.856,1891.1934 C1676.6466,1889.9895 1682.9484,1888.4673 1689.3832,1886.6031 C1695.8181,1884.7393 1702.3862,1882.5332 1708.8562,1879.9797 C1715.3264,1877.4265 1721.6985,1874.526 1727.9656,1871.2834 C1734.2327,1868.0406 1740.3947,1864.456 1746.3855,1860.5391 C1758.3676,1852.7052 1769.6648,1843.5424 1779.8899,1833.321 C1790.1151,1823.0997 1799.268,1811.82 1807.1058,1799.8176 C1814.9435,1787.8152 1821.4663,1775.0902 1826.5645,1762.2275 C1836.7609,1736.5024 1841.2593,1710.2272 1841.2748,1684.9216 C1841.2826,1672.2689 1840.1696,1659.8585 1837.7622,1647.0331 C1835.3549,1634.2075 1831.6532,1620.967 1826.5487,1608.0326 C1821.4443,1595.0983 1814.9373,1582.4701 1807.1058,1570.5023 C1799.2743,1558.5347 1790.1183,1547.2274 1779.8914,1536.9967 C1774.7778,1531.8815 1769.3967,1527.0353 1763.7963,1522.4897 C1758.1956,1517.9441 1752.3757,1513.6992 1746.3865,1509.7832 C1740.3972,1505.8672 1734.2388,1502.2803 1727.9656,1499.0366 C1721.6924,1495.7931 1715.3044,1492.893 1708.8562,1490.3401 C1705.6322,1489.0637 1702.3931,1487.874 1699.1454,1486.7705 C1695.8977,1485.6669 1692.6416,1484.6494 1689.3832,1483.7168 C1686.1248,1482.7842 1682.8643,1481.9366 1679.6079,1481.1724 C1676.3516,1480.4078 1673.0994,1479.7268 1669.856,1479.1267 C1666.6124,1478.5266 1663.3776,1478.0074 1660.1627,1477.5667 C1658.5554,1477.3462 1656.953,1477.1455 1655.3457,1476.9639 C1653.7385,1476.7822 1652.1263,1476.6198 1650.5563,1476.4762 C1648.9862,1476.3325 1647.4583,1476.2078 1645.7965,1476.1013 C1644.1348,1475.995 1642.3392,1475.907 1641.0698,1475.837 C1639.8004,1475.767 1639.0573,1475.715 1635.6713,1475.6802 C1633.9783,1475.6627 1631.6245,1475.6497 1634.0492,1475.6415 C1636.4738,1475.6334 1643.6768,1475.6304 1626.6477,1475.629 C1604.6948,1475.6272 1542.471,1475.6283 1489.1489,1475.6287 C1435.8267,1475.629 1391.4065,1475.6289 1345.456,1475.6288 C1253.5554,1475.6285 1155.5347,1475.6288 1061.4086,1475.6287 z" stroke="#B8B8B8" stroke-width="0.24" stroke-linecap="round" stroke-linejoin="round" fill="none" />
    <path d="M253.22256,2282.7124 C253.18506,2348.044 253.14758,2413.3755 253.11012,2478.707 C263.10016,2478.7107 273.02576,2478.726 283.05258,2478.7224 C288.066,2478.7205 293.1047,2478.7139 297.99622,2478.7354 C302.88773,2478.7566 307.63208,2478.8057 312.95828,2478.7446 C318.2845,2478.6833 324.19257,2478.512 329.56314,2478.0886 C334.93375,2477.6655 339.76685,2476.9905 344.26715,2476.101 C353.26773,2474.322 360.93707,2471.6848 367.63336,2468.1194 C374.32965,2464.5542 380.0529,2460.0608 385.32068,2454.54 C390.58844,2449.0193 395.40073,2442.471 399.36673,2435.0957 C403.3327,2427.7207 406.45242,2419.519 408.54004,2410.952 C410.62766,2402.385 411.68323,2393.453 411.60904,2383.2734 C411.5349,2373.0938 410.331,2361.6665 407.77487,2351.5269 C405.21872,2341.387 401.31033,2332.535 396.23315,2324.5051 C391.156,2316.4758 384.91003,2309.269 377.87723,2303.4966 C374.36078,2300.6104 370.6476,2298.0828 366.4095,2295.757 C362.17133,2293.4316 357.40823,2291.3079 353.47693,2289.8364 C349.5457,2288.365 346.4462,2287.5454 342.50497,2286.7402 C338.56372,2285.9348 333.78067,2285.1436 328.63916,2284.525 C323.49765,2283.9058 317.99765,2283.4595 311.87955,2283.1904 C305.76147,2282.9211 299.0253,2282.8298 293.77057,2282.7764 C283.26108,2282.6692 278.6773,2282.7146 272.72433,2282.7246 C266.77142,2282.7344 259.4493,2282.7095 253.22256,2282.7124 z" stroke="#B8B8B8" stroke-width="0.24" stroke-linecap="round" stroke-linejoin="round" fill="none" />
    <path d="M1621.162,2283.5645 C1621.1056,2319.0046 1621.1914,2371.2385 1621.0535,2397.0828 C1620.9845,2410.005 1620.8596,2416.3293 1620.6036,2421.1333 C1620.3477,2425.9375 1619.9608,2429.221 1619.1584,2432.5244 C1618.356,2435.8281 1617.1381,2439.1519 1615.7002,2442.149 C1614.2622,2445.146 1612.6041,2447.816 1610.7081,2450.2402 C1608.8121,2452.664 1606.6781,2454.8416 1604.2463,2456.7646 C1601.8146,2458.6877 1599.0851,2460.3562 1596.3032,2461.7065 C1590.7397,2464.4072 1584.9668,2465.8357 1578.303,2465.7988 C1574.971,2465.7805 1571.4163,2465.396 1567.764,2464.4866 C1564.1118,2463.5771 1560.3618,2462.143 1556.9862,2460.4653 C1550.2347,2457.1094 1544.98,2452.7778 1541.3983,2447.4656 C1537.8168,2442.1533 1535.9081,2435.8606 1534.8876,2428.0752 C1534.3558,2418.788 1534.1718,2427.5063 1534.1353,2401.8264 C1534.099,2376.147 1534.2101,2316.0693 1534.2032,2283.5103 C1527.937,2283.5063 1521.6709,2283.5022 1515.4048,2283.4985 C1515.4027,2320.622 1515.3116,2367.778 1515.3779,2397.1846 C1515.3944,2404.5361 1515.4209,2410.7783 1515.5448,2415.5886 C1515.6687,2420.399 1515.89,2423.7766 1516.1855,2427.0642 C1516.4811,2430.3518 1516.851,2433.5486 1517.2594,2436.2417 C1517.6676,2438.9348 1518.1147,2441.124 1518.8824,2443.608 C1520.418,2448.575 1523.2367,2454.72 1526.9407,2459.9478 C1530.6448,2465.1755 1535.2343,2469.4858 1540.4885,2473.1135 C1545.7427,2476.741 1551.6615,2479.6855 1558.355,2481.6184 C1565.0483,2483.5518 1572.5164,2484.4731 1579.4856,2484.4631 C1586.4548,2484.4531 1592.9253,2483.5115 1598.9092,2481.4775 C1604.8931,2479.4434 1610.3905,2476.3164 1615.2351,2472.494 C1620.0797,2468.6711 1624.2715,2464.1523 1627.5511,2459.4607 C1630.8308,2454.769 1633.1985,2449.9043 1634.945,2444.326 C1636.6914,2438.7478 1637.8168,2432.456 1638.6401,2425.7915 C1639.0516,2422.4592 1639.3878,2419.034 1639.5778,2414.3877 C1639.7678,2409.7412 1639.8116,2403.8738 1639.8439,2396.7822 C1639.9724,2368.4155 1639.9135,2320.4597 1639.9606,2283.5762 C1633.6945,2283.572 1627.4282,2283.568 1621.162,2283.5645 z" stroke="#B8B8B8" stroke-width="0.24" stroke-linecap="round" stroke-linejoin="round" fill="none" />
    <path d="M1118.9769,1615.3163 C1095.8131,1638.5974 1072.6495,1661.8787 1049.4858,1685.16 C1072.6495,1708.4413 1095.8131,1731.7225 1118.9769,1755.0038 C1161.6824,1755.0038 1204.4832,1755.004 1247.1649,1755.0038 C1289.8466,1755.0037 1332.4093,1755.0029 1375.3529,1755.0038 C1418.2965,1755.0045 1461.621,1755.0068 1503.0295,1755.0018 C1523.7339,1754.9994 1543.9591,1754.9951 1567.6349,1755.0038 C1591.3108,1755.0126 1618.437,1755.0342 1629.4585,1754.9952 C1637.7123,1754.9661 1636.9342,1754.9026 1638.0046,1754.7212 C1639.0752,1754.5399 1641.9941,1754.2406 1644.438,1753.8378 C1646.8817,1753.4349 1648.8503,1752.9287 1650.947,1752.3077 C1653.0437,1751.6868 1655.2684,1750.951 1657.438,1750.1 C1659.6078,1749.2488 1661.7225,1748.2821 1663.8079,1747.2012 C1665.8931,1746.1201 1667.949,1744.9249 1669.947,1743.6195 C1673.943,1741.0084 1677.7074,1737.9565 1681.116,1734.547 C1684.5245,1731.1375 1687.5773,1727.3701 1690.1879,1723.3792 C1692.7985,1719.3883 1694.9669,1715.174 1696.6688,1710.8691 C1698.3707,1706.5643 1699.6062,1702.169 1700.4067,1697.869 C1701.2072,1693.569 1701.5728,1689.3645 1701.5728,1685.16 C1701.5728,1680.9556 1701.2072,1676.7511 1700.4067,1672.451 C1699.6063,1668.1509 1698.3707,1663.7552 1696.6688,1659.4508 C1694.9669,1655.1465 1692.7983,1650.9336 1690.1884,1646.9415 C1688.8834,1644.9454 1687.4681,1643.0045 1685.9524,1641.1376 C1684.4368,1639.2706 1682.8206,1637.4775 1681.116,1635.773 C1679.4113,1634.0684 1677.618,1632.4521 1675.7513,1630.9365 C1673.8846,1629.421 1671.9446,1628.0062 1669.9481,1626.701 C1667.9517,1625.3958 1665.8988,1624.2001 1663.8079,1623.1188 C1661.7168,1622.0376 1659.5874,1621.0709 1657.438,1620.2201 C1656.3634,1619.7946 1655.2837,1619.398 1654.201,1619.0302 C1653.1185,1618.6624 1652.0331,1618.3231 1650.947,1618.0122 C1649.8608,1617.7014 1648.7742,1617.4188 1647.6886,1617.1641 C1646.603,1616.9093 1645.5187,1616.6823 1644.438,1616.4823 C1643.357,1616.2822 1642.28,1616.1091 1641.2059,1615.9622 C1640.6688,1615.8887 1640.1324,1615.8218 1639.6012,1615.7614 C1639.07,1615.7007 1638.5436,1615.6466 1638.0046,1615.5988 C1637.4657,1615.5509 1636.9141,1615.5093 1636.4181,1615.4738 C1635.9222,1615.4384 1635.4822,1615.4089 1634.8427,1615.3856 C1634.203,1615.3623 1633.3638,1615.3451 1633.5538,1615.3334 C1633.6488,1615.3275 1634.0011,1615.323 1632.5024,1615.3204 C1631.0035,1615.3179 1627.6538,1615.3171 1611.4197,1615.3168 C1573.7886,1615.3156 1466.9268,1615.3162 1375.3529,1615.3163 C1283.779,1615.3164 1207.493,1615.3162 1118.9769,1615.3163 z" stroke="#B8B8B8" stroke-width="0.24" stroke-linecap="round" stroke-linejoin="round" fill="none" />
    <path d="M1003.84033,1335.941 C888.022,1452.3473 772.20355,1568.7537 656.3852,1685.16 C772.20355,1801.5663 888.022,1917.9727 1003.84033,2034.379 C1056.1643,2034.379 1108.4888,2034.379 1160.8125,2034.379 C1213.1362,2034.379 1265.4594,2034.379 1317.7855,2034.379 C1343.9486,2034.3788 1370.1124,2034.3788 1396.2706,2034.379 C1422.429,2034.3793 1448.5815,2034.3796 1474.7567,2034.379 C1500.9321,2034.3783 1527.1301,2034.3765 1553.2117,2034.3806 C1566.2526,2034.3824 1579.2643,2034.386 1592.5791,2034.3743 C1599.2363,2034.3682 1605.9694,2034.3584 1612.1074,2034.379 C1618.2454,2034.3994 1623.7883,2034.4502 1629.0471,2034.4305 C1654.7753,2034.334 1673.7024,2032.5492 1694.9688,2028.5552 C1705.6018,2026.5583 1716.8197,2024.009 1727.8195,2020.8987 C1738.819,2017.7886 1749.6003,2014.1171 1760.3069,2009.8619 C1781.72,2001.3513 1802.8337,1990.5051 1822.825,1977.4547 C1842.8162,1964.4042 1861.6849,1949.1497 1878.707,1932.1014 C1912.7511,1898.005 1939.4084,1856.734 1956.4698,1813.689 C1965.0004,1792.1666 1971.132,1770.2007 1975.1177,1748.705 C1979.1035,1727.2092 1980.9434,1706.1837 1980.9478,1685.16 C1980.9523,1664.1364 1979.1213,1643.1145 1975.1177,1621.6151 C1971.1144,1600.1156 1964.9382,1578.1387 1956.4286,1556.6144 C1947.919,1535.0901 1937.0756,1514.0184 1924.0237,1494.064 C1910.9717,1474.1095 1895.7113,1455.2722 1878.6663,1438.2223 C1870.1438,1429.6974 1861.1752,1421.6191 1851.841,1414.0427 C1842.5067,1406.4664 1832.807,1399.3918 1822.825,1392.8654 C1812.8429,1386.3387 1802.5786,1380.3604 1792.1233,1374.9543 C1781.668,1369.5483 1771.0215,1364.715 1760.2747,1360.4602 C1754.9011,1358.3328 1749.5024,1356.3501 1744.0897,1354.5107 C1738.6769,1352.6714 1733.25,1350.9756 1727.8195,1349.4214 C1722.3888,1347.8671 1716.9546,1346.4543 1711.5273,1345.1804 C1706.0999,1343.9065 1700.6792,1342.7712 1695.2739,1341.7711 C1689.8687,1340.7709 1684.4785,1339.9058 1679.1173,1339.1711 C1676.4368,1338.8038 1673.7634,1338.4691 1671.0902,1338.1664 C1668.4172,1337.8638 1665.7444,1337.593 1663.1078,1337.3538 C1660.4713,1337.1143 1657.8711,1336.9064 1655.1749,1336.729 C1652.4786,1336.5516 1649.6864,1336.4049 1647.2972,1336.2882 C1644.908,1336.1716 1642.9216,1336.0851 1638.9451,1336.0269 C1636.9568,1335.9978 1634.4711,1335.9758 1635.5961,1335.9624 C1636.7211,1335.9491 1641.4568,1335.9442 1624.569,1335.9419 C1600.6006,1335.9386 1533.0751,1335.9403 1474.7567,1335.941 C1416.4385,1335.9418 1367.3274,1335.9414 1316.6338,1335.9413 C1215.2466,1335.9408 1107.5293,1335.9412 1003.84033,1335.941 z" stroke="#B8B8B8" stroke-width="0.24" stroke-linecap="round" stroke-linejoin="round" fill="none" />
    <path d="M675.98047,2310.1565 C667.37683,2297.893 659.2186,2289.4717 651.5058,2284.8923 C643.79297,2280.3132 635.50336,2278.0208 626.63696,2278.0151 C618.28204,2278.01 610.5441,2280.026 603.4231,2284.0632 C596.30206,2288.1003 590.77875,2293.626 586.853,2300.6409 C582.92737,2307.6558 580.9621,2315.427 580.95715,2323.954 C580.951,2334.7021 584.27014,2344.697 590.9147,2353.9392 C594.7479,2359.449 604.50433,2368.3818 620.18396,2380.7385 C635.7784,2393.0063 646.51434,2403.4946 652.39185,2412.203 C656.65094,2418.5125 658.77856,2424.9536 658.7748,2431.5266 C658.77155,2437.3003 657.31903,2442.7622 654.4175,2447.9124 C651.51587,2453.0625 647.29346,2457.168 641.75024,2460.2292 C636.207,2463.29 630.28094,2464.8188 623.97217,2464.8147 C609.22327,2464.8057 596.2283,2454.0051 584.9871,2432.4133 C579.65686,2435.741 574.32654,2439.0686 568.9963,2442.3962 C576.8311,2457.3242 585.393,2467.9663 594.682,2474.3232 C603.971,2480.6802 614.3276,2483.862 625.7515,2483.8691 C640.5857,2483.8784 653.18494,2478.6455 663.5493,2468.1707 C673.9137,2457.6953 679.0999,2445.3518 679.1081,2431.1396 C679.1138,2421.2798 676.09283,2411.463 670.0454,2401.6882 C663.99805,2391.9136 652.8362,2380.7588 636.5599,2368.224 C622.8401,2357.6455 614.7447,2351.1118 612.2738,2348.6228 C607.75806,2343.9124 604.64874,2339.5579 602.946,2335.5598 C601.24316,2331.5615 600.39307,2327.4304 600.3955,2323.167 C600.3995,2316.1494 602.81134,2310.2441 607.6309,2305.4504 C612.4505,2300.657 618.65405,2298.2625 626.2417,2298.267 C632.1242,2298.271 637.5582,2299.8289 642.5438,2302.941 C647.52936,2306.0527 653.5574,2312.4963 660.6278,2322.2717 C665.74536,2318.2334 670.8629,2314.1948 675.98047,2310.1565 z" stroke="#B8B8B8" stroke-width="0.24" stroke-linecap="round" stroke-linejoin="round" fill="none" />
    <path d="M734.9645,2479.0073 L735.0769,2283.0125 L716.2785,2283.0007 L716.166,2478.9956 z" stroke="#B8B8B8" stroke-width="0.24" stroke-linecap="round" stroke-linejoin="round" fill="none" />
    <path d="M1032.6245,1405.7849 C939.9698,1498.9099 847.31506,1592.0349 754.6604,1685.16 C847.31506,1778.285 939.9698,1871.41 1032.6245,1964.5352 C1082.5493,1964.5352 1132.4763,1964.5353 1182.4005,1964.5352 C1232.3248,1964.5352 1282.2463,1964.5349 1332.1799,1964.5354 C1357.1467,1964.5355 1382.1166,1964.5358 1407.0648,1964.5352 C1432.013,1964.5344 1456.9395,1964.5327 1481.9528,1964.5352 C1506.9662,1964.5376 1532.0665,1964.5441 1556.7218,1964.5295 C1569.0494,1964.5223 1581.2657,1964.5098 1594.2848,1964.5352 C1607.3041,1964.5604 1621.1259,1964.6235 1630.8925,1964.5529 C1643.412,1964.4622 1649.2681,1964.1514 1656.832,1963.405 C1664.396,1962.6587 1673.6678,1961.4769 1682.565,1959.8711 C1691.4619,1958.2653 1699.9839,1956.2355 1708.6012,1953.751 C1717.2186,1951.2666 1725.9314,1948.3274 1734.5494,1944.9221 C1751.7854,1938.1118 1768.6425,1929.437 1784.6058,1918.9957 C1800.569,1908.5544 1815.6383,1896.3467 1829.277,1882.708 C1842.9155,1869.0695 1855.1235,1854.0002 1865.5647,1838.0369 C1876.006,1822.0735 1884.6807,1805.216 1891.4886,1787.9965 C1898.2968,1770.7771 1903.2382,1753.1957 1906.44,1735.996 C1909.6418,1718.7963 1911.104,1701.978 1911.104,1685.16 C1911.104,1668.3419 1909.642,1651.5238 1906.44,1634.3241 C1903.2382,1617.1244 1898.2966,1599.5428 1891.4886,1582.3235 C1884.6807,1565.1041 1876.0062,1548.2468 1865.5647,1532.2832 C1855.1233,1516.3197 1842.9148,1501.2498 1829.2788,1487.6099 C1822.4607,1480.7898 1815.2859,1474.3273 1807.8185,1468.2662 C1800.3512,1462.2052 1792.5914,1456.5454 1784.6058,1451.3243 C1776.6201,1446.103 1768.4087,1441.3203 1760.0444,1436.9956 C1751.6802,1432.6708 1743.163,1428.804 1734.5654,1425.4 C1730.2666,1423.6981 1725.9478,1422.112 1721.6176,1420.6406 C1717.2874,1419.1691 1712.9458,1417.8124 1708.6012,1416.5691 C1704.2568,1415.3256 1699.9094,1414.1956 1695.5675,1413.1764 C1691.2257,1412.1572 1686.8893,1411.2491 1682.565,1410.449 C1678.2405,1409.6488 1673.9281,1408.9565 1669.64,1408.3689 C1667.4961,1408.0751 1665.3582,1407.8073 1663.218,1407.5651 C1661.0779,1407.323 1658.9354,1407.1064 1656.832,1406.9149 C1654.7286,1406.7234 1652.6644,1406.5571 1650.4857,1406.4153 C1648.307,1406.2733 1646.014,1406.1559 1644.1835,1406.0626 C1642.3531,1405.9692 1640.9854,1405.8999 1637.3107,1405.8535 C1635.4734,1405.8302 1633.0594,1405.8127 1634.8226,1405.802 C1636.5858,1405.7913 1642.5261,1405.7872 1625.5916,1405.7855 C1602.6587,1405.7828 1537.7761,1405.7843 1481.9528,1405.7849 C1426.1294,1405.7854 1379.3655,1405.7852 1331.0443,1405.785 C1234.402,1405.7847 1131.5316,1405.7849 1032.6245,1405.7849 z" stroke="#B8B8B8" stroke-width="0.24" stroke-linecap="round" stroke-linejoin="round" fill="none" />
    <path d="M889.6261,2385.17 C889.62244,2391.4768 889.6189,2397.7832 889.61523,2404.0898 C909.60724,2404.1025 929.5993,2404.115 949.5913,2404.1274 C947.1085,2422.246 939.17145,2436.9866 925.7801,2448.348 C912.38873,2459.7095 896.0167,2465.384 876.6642,2465.3718 C860.7217,2465.362 846.06024,2461.5557 832.6797,2453.9526 C819.29926,2446.3496 808.819,2435.906 801.2391,2422.6218 C793.65906,2409.3374 789.87335,2395.3228 789.8818,2380.578 C789.89,2366.188 793.5637,2352.5332 800.903,2339.6135 C808.24225,2326.6938 818.58514,2316.4631 831.9317,2308.9211 C845.27826,2301.3792 859.326,2297.613 874.0749,2297.622 C885.9251,2297.6294 898.0935,2300.4128 910.58,2305.9722 C923.0665,2311.5317 934.5498,2319.6885 945.02985,2330.443 C949.892,2325.6497 954.7543,2320.856 959.6165,2316.0623 C946.23926,2302.819 932.51886,2293.195 918.45544,2287.1904 C904.392,2281.186 889.3891,2278.1787 873.44666,2278.169 C853.753,2278.1567 836.10284,2282.6536 820.4963,2291.6597 C804.8897,2300.6658 792.6059,2313.1604 783.64514,2329.1436 C774.6843,2345.1267 770.19855,2362.4006 770.1879,2380.9653 C770.1736,2405.9253 777.9617,2427.9146 793.55225,2446.933 C813.8284,2471.6396 841.3584,2484.0034 876.1419,2484.0251 C904.7872,2484.043 927.6616,2475.1523 944.7652,2457.3535 C961.8688,2439.5542 970.5145,2415.51 970.70245,2385.2205 C943.677,2385.2036 916.65155,2385.1868 889.6261,2385.17 z" stroke="#B8B8B8" stroke-width="0.24" stroke-linecap="round" stroke-linejoin="round" fill="none" />
    <path d="M448.12814,2478.8289 L555.16425,2478.8953 L555.17523,2459.709 L466.93762,2459.6538 L466.98178,2382.6416 L555.2194,2382.6965 L555.23047,2363.5103 L466.99277,2363.4553 L467.028,2302.032 L556.03296,2302.0874 L556.04395,2282.9011 L448.24057,2282.8337 z" stroke="#B8B8B8" stroke-width="0.24" stroke-linecap="round" stroke-linejoin="round" fill="none" />
    <path d="M271.2427,2301.9102 C271.21246,2354.6729 271.1822,2407.4355 271.1519,2460.1982 C278.39847,2460.2026 285.64505,2460.2073 292.8916,2460.2117 C318.894,2460.228 336.92615,2458.553 346.98807,2455.1865 C361.14294,2450.4028 372.2735,2441.7788 380.37976,2429.3142 C388.48602,2416.8494 392.5443,2401.609 392.55466,2383.5925 C392.5655,2364.688 388.1842,2348.5325 379.41077,2335.126 C370.6373,2321.7195 358.40866,2312.5264 342.7248,2307.5466 C330.96194,2303.8113 311.56775,2301.935 284.5423,2301.9182 C280.10913,2301.9158 275.6759,2301.9128 271.2427,2301.9102 z" stroke="#B8B8B8" stroke-width="0.24" stroke-linecap="round" stroke-linejoin="round" fill="none" />
    <path d="M1135.9828,2283.2622 L1135.8967,2433.5017 L1010.78766,2283.1843 L1006.6955,2283.1816 L1006.58295,2479.1765 L1026.0209,2479.1885 L1026.1061,2330.7769 L1150.193,2479.2659 L1154.4131,2479.2686 L1154.5255,2283.2737 z" stroke="#B8B8B8" stroke-width="0.24" stroke-linecap="round" stroke-linejoin="round" fill="none" />
    <path d="M1344.9174,2322.698 C1350.0348,2318.6594 1355.1523,2314.6208 1360.27,2310.5828 C1351.6663,2298.3193 1343.5082,2289.898 1335.7953,2285.3186 C1328.0824,2280.7393 1319.7928,2278.4468 1310.9264,2278.4412 C1302.5715,2278.436 1294.8336,2280.4521 1287.7126,2284.4893 C1280.5916,2288.5264 1275.0682,2294.0525 1271.1426,2301.0674 C1267.2169,2308.0818 1265.2515,2315.853 1265.2466,2324.3804 C1265.2405,2335.1282 1268.5596,2345.1233 1275.2041,2354.3652 C1279.0374,2359.875 1288.7938,2368.808 1304.4735,2381.1648 C1320.0679,2393.4324 1330.8038,2403.9207 1336.6813,2412.6294 C1340.9403,2418.9385 1343.068,2425.38 1343.0642,2431.953 C1343.061,2437.7266 1341.6085,2443.1885 1338.707,2448.3386 C1335.8053,2453.4885 1331.5829,2457.5945 1326.0397,2460.6553 C1320.4965,2463.7163 1314.5703,2465.2449 1308.2617,2465.2412 C1293.5127,2465.2317 1280.5177,2454.4312 1269.2766,2432.8396 C1263.9463,2436.1672 1258.616,2439.495 1253.2858,2442.8228 C1261.1206,2457.7502 1269.6825,2468.3926 1278.9714,2474.7495 C1288.2605,2481.1062 1298.6171,2484.2883 1310.041,2484.2954 C1324.8752,2484.3044 1337.4744,2479.0715 1347.8389,2468.5967 C1358.2031,2458.1216 1363.3894,2445.7778 1363.3976,2431.566 C1363.4032,2421.706 1360.3823,2411.889 1354.3348,2402.1143 C1348.2876,2392.3396 1337.1256,2381.185 1320.8494,2368.6504 C1307.1295,2358.0715 1299.0342,2351.5378 1296.5634,2349.0493 C1292.0475,2344.3386 1288.9382,2339.9841 1287.2355,2335.9858 C1285.5327,2331.9875 1284.6825,2327.8564 1284.6849,2323.593 C1284.689,2316.576 1287.1008,2310.6704 1291.9204,2305.8767 C1296.7399,2301.0833 1302.9436,2298.6885 1310.5311,2298.6934 C1316.4137,2298.697 1321.8477,2300.255 1326.8333,2303.367 C1331.8188,2306.479 1337.8468,2312.9226 1344.9174,2322.698 z" stroke="#B8B8B8" stroke-width="0.24" stroke-linecap="round" stroke-linejoin="round" fill="none" />
    <path d="M1426.4153,2479.438 L1445.5973,2479.45 L1445.6989,2302.6416 L1487.6437,2302.6675 L1487.6547,2283.4812 L1384.5829,2283.417 L1384.5718,2302.6033 L1426.5167,2302.6296 z" stroke="#B8B8B8" stroke-width="0.24" stroke-linecap="round" stroke-linejoin="round" fill="none" />
  </g>
</svg>