<?xml version="1.0" encoding="utf-8" standalone="no"?>
<!DOCTYPE svg PUBLIC "-//W3C//DTD SVG 1.1//EN" "http://www.w3.org/Graphics/SVG/1.1/DTD/svg11.dtd">
<svg version="1.1" width="3370.32pt" height="2383.92pt" viewBox="0 0 3370.32 2383.92" overflow="visible" xmlns="http://www.w3.org/2000/svg">
  <g id="FINAL_LOGO">
    <path d="M2464.2998,1261.8601 C2464.235,1374.6097 2464.1704,1487.3594 2464.1057,1600.1089 C2481.8242,1600.1149 2499.4287,1600.142 2517.213,1600.1359 C2526.1047,1600.1328 2535.0415,1600.1216 2543.7173,1600.1584 C2552.393,1600.1953 2560.8076,1600.2803 2570.2544,1600.1749 C2579.7012,1600.0696 2590.18,1599.7738 2599.7053,1599.0435 C2609.2307,1598.3132 2617.803,1597.1486 2625.785,1595.6136 C2641.7485,1592.5437 2655.3506,1587.9928 2667.2278,1581.8396 C2679.105,1575.6865 2689.2568,1567.931 2698.5981,1558.4048 C2707.9395,1548.8784 2716.4695,1537.5812 2723.5103,1524.8481 C2730.5508,1512.1154 2736.1018,1497.9467 2739.7798,1483.1809 C2743.4575,1468.415 2745.2622,1453.052 2745.1853,1434.9767 C2745.147,1425.939 2744.638,1416.2233 2743.5305,1406.9995 C2742.4229,1397.7759 2740.7166,1389.0442 2738.4333,1380.6139 C2733.8665,1363.7534 2726.9917,1348.0985 2717.986,1334.0332 C2713.4836,1327.0005 2708.448,1320.3652 2702.9697,1314.2921 C2697.4915,1308.2191 2691.5703,1302.7081 2685.3374,1297.7539 C2679.1045,1292.7997 2672.5598,1288.4023 2665.0522,1284.3759 C2657.545,1280.3492 2649.0747,1276.6935 2642.1145,1274.1577 C2635.1545,1271.622 2629.7043,1270.2062 2622.654,1268.8138 C2615.604,1267.4214 2606.9534,1266.0524 2598.0613,1264.9901 C2589.1692,1263.9277 2580.0354,1263.1722 2568.336,1262.6865 C2556.6362,1262.2008 2542.371,1261.9849 2533.478,1261.9031 C2524.5847,1261.8214 2521.0635,1261.8738 2516.1833,1261.8923 C2511.3032,1261.9109 2505.0642,1261.8955 2499.0586,1261.8859 C2487.0479,1261.8667 2475.971,1261.8708 2464.2998,1261.8601 z M2534.663,1568.1904 C2521.8103,1568.1825 2508.9575,1568.1746 2496.1047,1568.1665 C2496.157,1477.1084 2496.2092,1386.0503 2496.2615,1294.9921 C2504.1243,1294.997 2511.9873,1295.0018 2519.85,1295.0067 C2567.7834,1295.0365 2602.1814,1298.2748 2623.0447,1304.7213 C2650.8623,1313.316 2672.5518,1329.182 2688.113,1352.3191 C2703.674,1375.4562 2711.4456,1403.3376 2711.4268,1435.9635 C2711.409,1467.0563 2704.2112,1493.3584 2689.8342,1514.8696 C2675.457,1536.3809 2655.7156,1551.2642 2630.6104,1559.5194 C2612.7642,1565.3287 2580.782,1568.2192 2534.663,1568.1904 z" stroke="Black" stroke-width="0" fill="#B8B8B8" fill-opacity="1" />
    <path d="M2003.4474,1599.8226 C2014.7881,1599.8297 2026.1288,1599.8368 2037.4695,1599.8439 C2037.5278,1498.1316 2037.5862,1396.4194 2037.6445,1294.707 C2062.4429,1294.7224 2087.2412,1294.7379 2112.0393,1294.7534 C2112.0457,1283.716 2112.052,1272.6786 2112.0583,1261.6412 C2051.121,1261.6034 1990.1838,1261.5656 1929.2466,1261.5277 C1929.2402,1272.565 1929.2339,1283.6024 1929.2275,1294.6396 C1954.0259,1294.6552 1978.8241,1294.6705 2003.6224,1294.686 C2003.5641,1396.3982 2003.5057,1498.1105 2003.4474,1599.8226 z" stroke="Black" stroke-width="0" fill="#B8B8B8" fill-opacity="1" />
    <path d="M2805.2004,1262.072 C2805.136,1374.8217 2805.0713,1487.5712 2805.0066,1600.3208 C2816.1204,1600.3278 2827.2341,1600.3346 2838.3481,1600.3416 C2838.4128,1487.5919 2838.4775,1374.8423 2838.542,1262.0928 C2827.4282,1262.0858 2816.3145,1262.0789 2805.2004,1262.072 z" stroke="Black" stroke-width="0" fill="#B8B8B8" fill-opacity="1" />
    <path d="M771.0351,1158.6868 C752.7475,1177.0673 734.4599,1195.4478 716.17224,1213.8281 C734.4599,1232.2086 752.7475,1250.5891 771.0351,1268.9695 C838.60675,1268.97 905.74854,1268.9688 973.5658,1268.97 C1007.4744,1268.9707 1041.552,1268.972 1074.2266,1268.968 C1090.5637,1268.9661 1106.5503,1268.9626 1125.2489,1268.9695 C1143.9475,1268.9764 1165.3579,1268.9937 1174.058,1268.9629 C1180.5731,1268.9397 1179.96,1268.8898 1180.8055,1268.7466 C1181.6511,1268.6033 1183.9553,1268.3671 1185.8845,1268.0491 C1187.8138,1267.731 1189.3682,1267.3313 1191.0234,1266.8411 C1192.6788,1266.3508 1194.435,1265.77 1196.1482,1265.098 C1197.8611,1264.4259 1199.5306,1263.6627 1201.177,1262.8093 C1202.8232,1261.956 1204.4464,1261.0127 1206.0239,1259.9818 C1209.1787,1257.9203 1212.151,1255.5089 1214.8417,1252.819 C1217.5323,1250.1292 1219.9412,1247.1606 1222.0039,1244.0021 C1224.0667,1240.8435 1225.7832,1237.4948 1227.1248,1234.1096 C1229.8081,1227.3397 1230.992,1220.4249 1230.9961,1213.7655 C1230.998,1210.4358 1230.7052,1207.1699 1230.0718,1203.7946 C1229.4382,1200.4191 1228.464,1196.9341 1227.1207,1193.5309 C1225.7773,1190.1278 1224.065,1186.8065 1222.0043,1183.6554 C1220.974,1182.08 1219.8567,1180.5469 1218.6602,1179.0726 C1217.4634,1177.5984 1216.1876,1176.1831 1214.8417,1174.8373 C1213.4958,1173.4916 1212.0802,1172.2155 1210.6064,1171.0189 C1209.1327,1169.8225 1207.6011,1168.7056 1206.0248,1167.6752 C1204.4486,1166.6445 1202.8279,1165.7006 1201.177,1164.8469 C1199.5261,1163.9933 1197.8451,1163.2302 1196.1482,1162.5583 C1195.2996,1162.2224 1194.4471,1161.9094 1193.5925,1161.6189 C1192.7379,1161.3285 1191.8809,1161.0607 1191.0234,1160.8153 C1190.166,1160.57 1189.3081,1160.3468 1188.4509,1160.1458 C1187.594,1159.9445 1186.7378,1159.7653 1185.8845,1159.6073 C1185.0312,1159.4493 1184.1809,1159.3129 1183.3329,1159.1968 C1182.9089,1159.1388 1182.4854,1159.0859 1182.0659,1159.0382 C1181.6466,1158.9904 1181.2311,1158.9476 1180.8055,1158.9098 C1180.38,1158.872 1179.9445,1158.8392 1179.553,1158.8112 C1179.1615,1158.7832 1178.814,1158.76 1178.3091,1158.7416 C1177.8041,1158.7231 1177.1415,1158.7096 1177.2916,1158.7003 C1177.3667,1158.6958 1177.6448,1158.6923 1176.4614,1158.6901 C1175.2782,1158.6881 1172.6334,1158.6875 1159.8168,1158.6871 C1130.1072,1158.6863 1045.7402,1158.6868 973.443,1158.6868 C901.1458,1158.6869 840.91833,1158.6868 771.0351,1158.6868 z" stroke="Black" stroke-width="0" fill="#B8B8B8" fill-opacity="1" />
    <path d="M2426.1697,875.20154 C2411.3215,854.03735 2397.2422,839.5038 2383.9312,831.6007 C2370.6204,823.69763 2356.3142,819.74133 2341.0125,819.73175 C2326.5935,819.72284 2313.2393,823.20197 2300.95,830.1693 C2288.6604,837.1367 2279.1282,846.67346 2272.3533,858.77966 C2265.5781,870.88586 2262.1865,884.29724 2262.1782,899.0137 C2262.1672,917.56256 2267.8958,934.812 2279.3628,950.76196 C2285.9783,960.27045 2302.816,975.6873 2329.876,997.0124 C2356.7888,1018.1841 2375.3171,1036.2847 2385.4602,1051.314 C2392.8108,1062.2026 2396.4824,1073.3188 2396.476,1084.6628 C2396.4702,1094.6271 2393.9636,1104.0533 2388.9563,1112.9414 C2383.9485,1121.8295 2376.6616,1128.9149 2367.095,1134.1978 C2357.5283,1139.4805 2347.3013,1142.1184 2336.4136,1142.1117 C2310.9597,1142.0958 2288.533,1123.4563 2269.133,1086.1931 C2259.934,1091.936 2250.735,1097.679 2241.5361,1103.4218 C2255.0574,1129.1841 2269.8335,1147.5505 2285.8645,1158.5212 C2301.8955,1169.492 2319.7688,1174.9834 2339.4844,1174.9957 C2365.0854,1175.0116 2386.829,1165.9807 2404.7158,1147.9028 C2422.6028,1129.825 2431.5532,1108.5222 2431.5674,1083.9949 C2431.5771,1066.979 2426.3638,1050.0365 2415.927,1033.1674 C2405.4902,1016.29816 2386.2273,997.0474 2358.1377,975.41516 C2334.46,957.1581 2320.4888,945.88214 2316.2246,941.58716 C2308.4312,933.4576 2303.0652,925.9427 2300.1265,919.0425 C2297.188,912.14233 2295.7205,905.0132 2295.7246,897.6549 C2295.7317,885.54443 2299.894,875.35284 2308.2117,867.08 C2316.5295,858.8072 2327.2354,854.67487 2340.3303,854.683 C2350.4824,854.68933 2359.8604,857.37787 2368.4646,862.74854 C2377.0688,868.1193 2387.4717,879.2398 2399.674,896.11005 C2408.5059,889.1405 2417.338,882.171 2426.1697,875.20154 z" stroke="Black" stroke-width="0" fill="#B8B8B8" fill-opacity="1" />
    <path d="M3073.8662,1253.7311 C3042.6956,1253.7115 3013.715,1261.55 2986.9246,1277.2463 C2960.1338,1292.9426 2938.9763,1314.6592 2923.452,1342.3962 C2907.9277,1370.1333 2900.1562,1400.2513 2900.1375,1432.7501 C2900.1096,1481.4984 2917.108,1523.0522 2951.1328,1557.4119 C2985.1575,1591.7715 3026.908,1608.9667 3076.384,1608.9974 C3125.2551,1609.0278 3166.685,1591.8077 3200.6738,1557.337 C3234.6626,1522.8665 3251.671,1480.8737 3251.6995,1431.3589 C3251.728,1381.3843 3234.73,1339.2938 3200.705,1305.0875 C3166.6802,1270.8812 3124.4006,1253.7625 3073.8662,1253.7311 z M3075.3215,1286.614 C3100.4622,1286.6296 3124.236,1293.1649 3146.643,1306.2198 C3169.05,1319.2748 3186.419,1336.6602 3198.7502,1358.3761 C3211.0813,1380.092 3217.2393,1404.3741 3217.2239,1431.2225 C3217.2085,1458.2242 3211.0225,1482.7677 3198.666,1504.8528 C3186.3098,1526.9376 3169.11,1544.34 3147.0664,1557.0594 C3125.0227,1569.7789 3101.0522,1576.1306 3075.1553,1576.1146 C3036.382,1576.0905 3003.2593,1562.2241 2975.7869,1534.5155 C2948.3147,1506.8068 2934.59,1472.8538 2934.613,1432.6566 C2934.629,1405.5015 2940.8525,1380.8822 2953.2844,1358.7983 C2965.7163,1336.7147 2982.9922,1319.1592 3005.1116,1306.132 C3027.231,1293.1046 3050.634,1286.5988 3075.3215,1286.614 z" stroke="Black" stroke-width="0" fill="#B8B8B8" fill-opacity="1" />
    <path d="M3220.0442,828.78723 C3219.9944,915.21533 3219.9448,1001.6434 3219.8953,1088.0715 C3147.924,1001.5985 3075.9526,915.1256 3003.9814,828.6526 C3001.6274,828.6511 2999.2734,828.64966 2996.9194,828.6482 C2996.8547,941.3978 2996.79,1054.1475 2996.7253,1166.8971 C3007.9072,1166.904 3019.089,1166.9109 3030.2712,1166.918 C3030.32,1081.5414 3030.3691,996.1648 3030.4182,910.78815 C3101.8015,996.2093 3173.1848,1081.6304 3244.5679,1167.0514 C3246.9956,1167.053 3249.4233,1167.0544 3251.8508,1167.0559 C3251.9155,1054.3063 3251.9802,941.55676 3252.045,828.8071 C3241.3782,828.80054 3230.711,828.7938 3220.0442,828.78723 z" stroke="Black" stroke-width="0" fill="#B8B8B8" fill-opacity="1" />
    <path d="M2527.9646,1166.6051 C2528.0293,1053.8555 2528.094,941.1059 2528.1587,828.3563 C2517.3445,828.34955 2506.5303,828.34283 2495.716,828.3361 C2495.6514,941.0857 2495.587,1053.8353 2495.5222,1166.585 C2506.3364,1166.5916 2517.1504,1166.5984 2527.9646,1166.6051 z" stroke="Black" stroke-width="0" fill="#B8B8B8" fill-opacity="1" />
    <path d="M173.05727,1213.8281 C301.07068,1085.1649 429.0841,956.50165 557.09753,827.8384 C531.2349,827.8384 505.3723,827.8384 479.50967,827.8384 C351.49625,956.50165 223.48283,1085.1649 95.46941,1213.8281 C223.48283,1342.4915 351.49625,1471.1547 479.50967,1599.818 C505.3723,1599.818 531.2349,1599.818 557.09753,1599.818 C429.0841,1471.1547 301.07068,1342.4915 173.05727,1213.8281 z" stroke="Black" stroke-width="0" fill="#B8B8B8" fill-opacity="1" />
    <path d="M725.5852,1048.404 C670.7223,1103.5454 615.8594,1158.6868 560.9965,1213.8281 C615.8594,1268.9695 670.7223,1324.111 725.5852,1379.2523 C763.0935,1379.2521 800.6572,1379.2528 838.1516,1379.2523 C875.646,1379.2518 913.071,1379.2504 950.718,1379.2523 C988.3651,1379.2544 1026.2343,1379.26 1062.9862,1379.2476 C1081.3623,1379.2413 1099.459,1379.2306 1119.5676,1379.2523 C1139.6763,1379.2742 1161.7971,1379.3284 1174.0646,1379.2235 C1182.324,1379.1528 1186.1171,1379.01 1190.715,1378.5833 C1195.313,1378.1564 1200.716,1377.4456 1205.9519,1376.4907 C1211.1879,1375.5358 1216.257,1374.3368 1221.3687,1372.8668 C1226.4803,1371.3969 1231.635,1369.6556 1236.7352,1367.6392 C1246.9357,1363.6061 1256.9193,1358.4714 1266.3726,1352.2875 C1275.8259,1346.1035 1284.7493,1338.8701 1292.8234,1330.8007 C1300.8976,1322.7313 1308.1227,1313.8258 1314.3102,1304.35 C1320.4977,1294.8739 1325.6475,1284.8276 1329.6726,1274.6727 C1337.723,1254.3628 1341.2742,1233.6187 1341.2864,1213.64 C1341.2926,1203.6506 1340.414,1193.8527 1338.5134,1183.727 C1336.6128,1173.6014 1333.6902,1163.1481 1329.6604,1152.9364 C1325.6304,1142.7247 1320.4932,1132.7549 1314.3102,1123.3064 C1308.1273,1113.8579 1300.8987,1104.9309 1292.8246,1096.8539 C1288.7875,1092.8153 1284.5391,1088.9894 1280.1174,1085.4006 C1275.6958,1081.8119 1271.1011,1078.4604 1266.3726,1075.3689 C1261.6442,1072.2772 1256.782,1069.4453 1251.8293,1066.8845 C1246.8766,1064.3237 1241.8334,1062.034 1236.7427,1060.0187 C1231.6519,1058.0033 1226.5135,1056.2621 1221.3687,1054.7894 C1218.7961,1054.0532 1216.222,1053.3842 1213.6511,1052.7806 C1211.0803,1052.1772 1208.5127,1051.6394 1205.9519,1051.1656 C1203.3911,1050.6919 1200.8373,1050.2821 1198.2993,1049.9341 C1197.0303,1049.76 1195.7651,1049.6016 1194.4963,1049.4581 C1193.2273,1049.3147 1191.9545,1049.1865 1190.715,1049.0731 C1189.4753,1048.9597 1188.269,1048.8613 1186.9572,1048.7772 C1185.6453,1048.6932 1184.2277,1048.6238 1183.2256,1048.5685 C1182.2234,1048.5132 1181.6366,1048.4722 1178.9634,1048.4447 C1177.6267,1048.4309 1175.7684,1048.4205 1177.6827,1048.4141 C1179.5969,1048.4077 1185.2836,1048.4053 1171.8392,1048.4043 C1154.5076,1048.4028 1105.382,1048.4037 1063.2845,1048.404 C1021.1869,1048.4043 986.1171,1048.4042 949.83954,1048.404 C877.2843,1048.4039 799.89746,1048.404 725.5852,1048.404 z M748.3102,1103.5454 C822.0233,1103.5453 885.9111,1103.5457 962.0805,1103.5454 C1038.25,1103.5452 1126.7012,1103.5444 1158.6731,1103.5461 C1171.7327,1103.547 1175.3687,1103.548 1177.072,1103.5521 C1178.7755,1103.5562 1178.5459,1103.5632 1178.5854,1103.5725 C1178.6646,1103.591 1179.8196,1103.6182 1180.7673,1103.655 C1181.715,1103.6918 1182.4554,1103.7382 1183.2551,1103.7942 C1184.0548,1103.8502 1184.9137,1103.9159 1185.7603,1103.9915 C1186.6068,1104.067 1187.4409,1104.1526 1188.2811,1104.248 C1189.1212,1104.3438 1189.9674,1104.4495 1190.8152,1104.5654 C1192.5105,1104.7975 1194.2117,1105.0707 1195.9182,1105.3866 C1197.6249,1105.7024 1199.3369,1106.0609 1201.051,1106.4631 C1202.7651,1106.8655 1204.4811,1107.3116 1206.196,1107.8024 C1207.911,1108.2933 1209.6249,1108.8289 1211.3342,1109.4097 C1213.0436,1109.9905 1214.7484,1110.6167 1216.4454,1111.2885 C1219.8392,1112.6322 1223.2014,1114.1586 1226.5032,1115.8657 C1229.8049,1117.573 1233.0463,1119.461 1236.1986,1121.522 C1239.3511,1123.583 1242.4146,1125.8168 1245.3618,1128.2097 C1248.3093,1130.6028 1251.1409,1133.1548 1253.8325,1135.8464 C1256.5242,1138.5381 1259.0759,1141.3693 1261.4692,1144.3171 C1263.8625,1147.265 1266.0974,1150.3297 1268.1578,1153.4814 C1272.279,1159.785 1275.7031,1166.4371 1278.3905,1173.2336 C1281.0779,1180.0302 1283.0287,1186.971 1284.2925,1193.7609 C1285.5565,1200.5505 1286.1337,1207.1893 1286.1337,1213.8281 C1286.1337,1220.467 1285.5565,1227.106 1284.2925,1233.8955 C1283.0287,1240.6852 1281.078,1247.6254 1278.3905,1254.4227 C1275.703,1261.2201 1272.2786,1267.8745 1268.1571,1274.1759 C1264.0355,1280.4774 1259.2168,1286.426 1253.8325,1291.8098 C1248.4482,1297.1937 1242.4984,1302.0128 1236.1986,1306.1344 C1229.8989,1310.256 1223.2495,1313.6802 1216.4348,1316.3689 C1213.0276,1317.7134 1209.5789,1318.8739 1206.196,1319.854 C1202.8132,1320.8339 1199.4961,1321.6334 1195.9182,1322.2698 C1192.3403,1322.9062 1188.502,1323.3794 1185.7603,1323.6648 C1183.0186,1323.9503 1181.3739,1324.0479 1174.0017,1324.0945 C1163.6049,1324.1604 1141.8165,1324.1251 1122.4083,1324.111 C1102.9999,1324.0968 1085.9717,1324.1038 1068.613,1324.1078 C1033.8956,1324.116 997.8567,1324.1122 962.0805,1324.111 C926.3043,1324.1096 890.7909,1324.1107 855.1954,1324.111 C819.5998,1324.1113 783.9221,1324.1108 748.3102,1324.111 C711.73486,1287.3501 675.15967,1250.5891 638.5844,1213.8281 C675.15967,1177.0673 711.73486,1140.3063 748.3102,1103.5454 z" stroke="Black" stroke-width="0" fill="#B8B8B8" fill-opacity="1" />
    <path d="M680.13525,938.1212 C588.69714,1030.0236 497.25897,1121.9258 405.8208,1213.8281 C497.25897,1305.7306 588.69714,1397.6328 680.13525,1489.5352 C721.4451,1489.5352 762.75415,1489.5353 804.0642,1489.5352 C845.3742,1489.535 886.6853,1489.5347 927.99194,1489.5354 C948.64526,1489.5358 969.29755,1489.5365 989.9576,1489.5352 C1010.6175,1489.5338 1031.2853,1489.5308 1051.922,1489.5352 C1072.5587,1489.5396 1093.1643,1489.5515 1113.929,1489.5248 C1124.3113,1489.5114 1134.7334,1489.4882 1144.8687,1489.5352 C1155.0039,1489.5822 1164.8523,1489.6992 1173.5924,1489.6205 C1194.9727,1489.4279 1209.7213,1488.0632 1226.0194,1484.9323 C1242.3175,1481.8014 1260.165,1476.904 1277.3372,1470.1772 C1294.5093,1463.4506 1311.0061,1454.8942 1326.7203,1444.5936 C1342.4347,1434.2931 1357.3665,1422.2483 1370.8246,1408.7881 C1397.7408,1381.8676 1418.7631,1349.2852 1432.2295,1315.3015 C1438.9626,1298.3097 1443.8071,1280.9675 1446.955,1263.9967 C1450.103,1247.0259 1451.5547,1230.4263 1451.5579,1213.8281 C1451.561,1197.23 1450.1156,1180.6333 1446.955,1163.6597 C1443.7943,1146.686 1438.9183,1129.3352 1432.2,1112.3419 C1425.4817,1095.3485 1416.9209,1078.7125 1406.6163,1062.9586 C1396.3119,1047.2046 1384.2639,1032.3326 1370.8069,1018.8718 C1364.0785,1012.1414 1356.9977,1005.76373 1349.6284,999.7822 C1342.2592,993.8006 1334.6012,988.21533 1326.7203,983.0626 C1318.8396,977.91 1310.7361,973.19006 1302.4817,968.92206 C1294.2272,964.6541 1285.8218,960.8381 1277.337,957.47894 C1273.0947,955.7994 1268.8325,954.234 1264.5592,952.7819 C1260.2858,951.3298 1256.0013,949.99084 1251.7139,948.7638 C1247.4265,947.5367 1243.1362,946.42145 1238.8513,945.41565 C1234.5664,944.4099 1230.2869,943.5137 1226.0194,942.72406 C1221.7518,941.9344 1217.4965,941.2513 1213.2639,940.6713 C1211.1476,940.3813 1209.0369,940.11707 1206.9265,939.8781 C1204.816,939.63916 1202.7058,939.4254 1200.6244,939.2365 C1198.5428,939.04755 1196.49,938.8833 1194.3613,938.7433 C1192.2327,938.6033 1190.0283,938.4874 1188.142,938.3953 C1186.2556,938.3032 1184.6875,938.23486 1181.548,938.18896 C1179.9783,938.166 1178.0157,938.1487 1178.9039,938.13806 C1179.7921,938.12756 1183.5309,938.12366 1170.1981,938.1218 C1151.2751,938.1192 1097.964,938.1206 1051.922,938.1212 C1005.8798,938.12177 967.1068,938.12146 927.0844,938.12134 C847.0396,938.121 761.9974,938.1213 680.13525,938.1212 z M702.8603,993.26263 C780.947,993.26263 862.16284,993.2624 938.46155,993.26263 C976.61084,993.26276 1013.5309,993.26294 1057.6033,993.26263 C1101.6754,993.26215 1152.9,993.2611 1171.0055,993.26306 C1184.3751,993.26447 1179.6853,993.26764 1178.2933,993.2761 C1176.9012,993.28467 1178.8071,993.29846 1180.2577,993.3168 C1183.1587,993.3536 1184.2386,993.40814 1185.6837,993.4819 C1187.1288,993.5556 1188.9391,993.64825 1190.6592,993.7603 C1192.3793,993.87225 1194.009,994.0036 1195.6697,994.1548 C1197.3302,994.3059 1199.0217,994.4769 1200.7113,994.66815 C1202.401,994.8593 1204.0889,995.0707 1205.7816,995.30273 C1209.1669,995.76666 1212.5715,996.3131 1215.9857,996.9449 C1219.3998,997.57654 1222.8234,998.2936 1226.2513,999.0982 C1229.6792,999.9027 1233.1113,1000.79486 1236.5411,1001.77655 C1243.4011,1003.74 1250.2522,1006.0616 1257.0398,1008.74884 C1263.8276,1011.43616 1270.5519,1014.4889 1277.1554,1017.90326 C1283.759,1021.3176 1290.2418,1025.0935 1296.5464,1029.2157 C1302.8511,1033.3379 1308.9774,1037.8064 1314.8729,1042.5914 C1320.7684,1047.3763 1326.433,1052.4777 1331.8158,1057.8624 C1342.5812,1068.6318 1352.2192,1080.5347 1360.4634,1093.1324 C1368.7073,1105.7305 1375.557,1119.0237 1380.9302,1132.6392 C1386.3033,1146.2546 1390.2001,1160.1925 1392.7341,1173.6934 C1395.2682,1187.1942 1396.4398,1200.2582 1396.4316,1213.5773 C1396.4154,1240.2155 1391.6803,1267.8744 1380.9465,1294.9542 C1375.5797,1308.494 1368.7131,1321.8892 1360.4633,1334.5239 C1352.2134,1347.1584 1342.5802,1359.0325 1331.8142,1369.7915 C1321.0483,1380.5508 1309.1499,1390.1951 1296.5464,1398.4407 C1283.9431,1406.686 1270.635,1413.5326 1257.0273,1418.9092 C1250.2234,1421.5973 1243.3447,1423.9181 1236.5413,1425.8798 C1229.7378,1427.8413 1223.0098,1429.4437 1215.9857,1430.7114 C1208.9615,1431.9792 1201.6414,1432.9124 1195.6697,1433.5016 C1189.6979,1434.0907 1185.0747,1434.336 1175.1904,1434.4077 C1167.4797,1434.4636 1156.5675,1434.4138 1146.289,1434.3938 C1136.0104,1434.3737 1126.3656,1434.3835 1116.633,1434.3893 C1097.1677,1434.4008 1077.3512,1434.3956 1057.6033,1434.3938 C1037.8552,1434.3918 1018.17584,1434.3932 998.4793,1434.3938 C978.7829,1434.3943 959.0693,1434.394 939.3581,1434.3939 C899.93567,1434.3936 860.5229,1434.3938 821.1079,1434.3938 C781.6929,1434.3938 742.2757,1434.3938 702.8603,1434.3938 C629.7097,1360.8718 556.5592,1287.3501 483.40866,1213.8281 C556.5592,1140.3063 629.7097,1066.7844 702.8603,993.26263 z" stroke="Black" stroke-width="0" fill="#B8B8B8" fill-opacity="1" />
    <path d="M250.64511,1213.8281 C378.65854,1342.4915 506.672,1471.1547 634.68536,1599.818 C784.534,1599.818 1061.255,1599.818 1147.5729,1599.818 C1199.271,1599.818 1182.6688,1599.818 1175.9967,1599.818 C1169.3246,1599.8179 1172.5825,1599.8179 1174.5835,1599.8179 C1178.5858,1599.8177 1177.5605,1599.8176 1176.9769,1599.8175 C1175.8092,1599.8171 1176.4071,1599.8168 1176.8356,1599.8162 C1177.6924,1599.8151 1177.8715,1599.8132 1178.1821,1599.8109 C1178.4927,1599.8086 1178.9349,1599.8057 1179.3462,1599.8021 C1179.7574,1599.7986 1180.138,1599.7946 1180.52,1599.7898 C1182.0487,1599.7711 1183.6067,1599.743 1185.1528,1599.7059 C1185.9259,1599.6873 1186.696,1599.6664 1187.4663,1599.6431 C1188.2366,1599.6199 1189.0071,1599.5945 1189.7769,1599.5668 C1191.316,1599.5112 1192.8519,1599.4465 1194.3851,1599.3728 C1195.9181,1599.2991 1197.4484,1599.2163 1198.9755,1599.1246 C1200.5026,1599.0331 1202.0267,1598.9324 1203.5479,1598.8229 C1205.0688,1598.7136 1206.5868,1598.5952 1208.1016,1598.4683 C1209.6163,1598.3413 1211.1279,1598.2054 1212.6361,1598.061 C1215.6527,1597.7722 1218.6562,1597.4489 1221.6464,1597.0916 C1224.6365,1596.7343 1227.6133,1596.3431 1230.575,1595.919 C1233.5366,1595.4948 1236.4833,1595.0376 1239.418,1594.5476 C1242.3528,1594.0577 1245.2754,1593.5349 1248.1748,1592.9818 C1254.4875,1591.7776 1260.69,1590.4292 1266.7614,1588.9594 C1272.8329,1587.4896 1278.7733,1585.8984 1284.5973,1584.1825 C1290.4213,1582.4666 1296.1285,1580.626 1301.6605,1578.7391 C1307.1925,1576.8522 1312.549,1574.919 1318.701,1572.4398 C1329.6404,1568.0317 1343.0952,1561.8976 1355.1093,1555.6681 C1367.1233,1549.4385 1377.6965,1543.1133 1387.771,1536.4469 C1399.4373,1528.7272 1410.4348,1520.5499 1420.5865,1512.3119 C1430.7383,1504.0739 1440.0444,1495.7754 1449.6449,1486.0071 C1466.7097,1468.6438 1484.7042,1446.6366 1498.6779,1425.5469 C1506.3412,1413.9813 1512.795,1402.6918 1518.7255,1391.0992 C1524.656,1379.5068 1530.0631,1367.6116 1534.8265,1355.5857 C1553.039,1309.6053 1561.8407,1261.7168 1561.8407,1213.8282 C1561.8407,1165.9396 1553.039,1118.051 1534.8265,1072.0707 C1530.0631,1060.0448 1524.656,1048.1495 1518.7255,1036.5571 C1512.795,1024.9646 1506.3412,1013.67505 1498.6779,1002.10944 C1484.7042,981.0198 1466.7097,959.0126 1449.6449,941.64923 C1440.0446,931.8809 1430.7383,923.5824 1420.5865,915.3445 C1410.4348,907.10657 1399.4373,898.9292 1387.771,891.20935 C1377.6965,884.543 1367.1233,878.2179 1355.1093,871.9883 C1343.0952,865.75867 1329.6404,859.6247 1318.701,855.2165 C1312.549,852.7374 1307.1925,850.80414 1301.6605,848.91724 C1296.1285,847.0304 1290.4213,845.18976 1284.5973,843.4739 C1278.7733,841.758 1272.8329,840.16675 1266.7614,838.69696 C1260.69,837.2271 1254.4875,835.8787 1248.1748,834.67456 C1245.2754,834.1214 1242.3528,833.5987 1239.418,833.1087 C1236.4833,832.6188 1233.5366,832.1616 1230.575,831.7374 C1227.6133,831.31323 1224.6366,830.92206 1221.6464,830.56476 C1218.6562,830.20746 1215.6527,829.8841 1212.6362,829.5953 C1211.1279,829.45087 1209.6163,829.31506 1208.1016,829.18805 C1206.5868,829.0611 1205.0688,828.94275 1203.5479,828.8334 C1202.0267,828.72394 1200.5026,828.6233 1198.9756,828.5317 C1197.4484,828.44006 1195.9181,828.3573 1194.3851,828.28357 C1192.8519,828.2099 1191.316,828.14526 1189.7769,828.08966 C1189.0071,828.0619 1188.2366,828.0364 1187.4663,828.0132 C1186.696,827.99 1185.9259,827.96906 1185.1528,827.95044 C1183.6067,827.9132 1182.0487,827.8852 1180.52,827.8665 C1180.138,827.8618 1179.7574,827.8577 1179.3463,827.85425 C1178.9349,827.8507 1178.4927,827.8478 1178.1821,827.84546 C1177.8715,827.8431 1177.6924,827.8413 1176.8356,827.84015 C1176.4071,827.8396 1175.8092,827.8392 1176.9769,827.83887 C1177.5607,827.8387 1178.5858,827.83856 1174.5836,827.8385 C1172.5825,827.83844 1169.3246,827.83844 1175.9967,827.83844 C1182.6688,827.8384 1199.271,827.8384 1147.5729,827.8384 C1061.2551,827.8384 784.534,827.8384 634.68536,827.8384 C506.672,956.50165 378.65854,1085.1649 250.64511,1213.8281 z M328.23297,1213.8281 C437.95874,1103.5454 547.6846,993.26263 657.41034,882.9798 C743.0485,882.9799 831.9148,882.97955 915.70825,882.9799 C957.60504,882.9801 998.2337,882.98047 1046.2407,882.9798 C1094.2478,882.9791 1149.6334,882.9774 1169.4174,882.9807 C1182.7458,882.9829 1179.9158,882.9874 1179.5145,883.00006 C1179.1132,883.01276 1181.1407,883.0335 1182.8345,883.06116 C1186.222,883.1162 1188.2742,883.1982 1190.6001,883.3088 C1192.9261,883.41925 1195.5258,883.5582 1198.0635,883.7263 C1200.6011,883.89435 1203.0768,884.0914 1205.5791,884.3181 C1208.0814,884.54486 1210.6104,884.80133 1213.1416,885.0881 C1215.6727,885.3749 1218.2063,885.69196 1220.7462,886.0399 C1225.826,886.73596 1230.9323,887.5556 1236.0531,888.5032 C1241.174,889.4508 1246.3094,890.52625 1251.4514,891.73315 C1256.5934,892.94006 1261.7417,894.2784 1266.8865,895.7509 C1272.0314,897.2234 1277.1729,898.8301 1282.3009,900.57263 C1287.429,902.3152 1292.5436,904.1936 1297.6344,906.20905 C1307.816,910.24 1317.9023,914.8192 1327.8077,919.94086 C1337.7131,925.06244 1347.4374,930.7264 1356.8944,936.90955 C1366.3513,943.0928 1375.5408,949.79517 1384.384,956.97296 C1393.2272,964.15076 1401.724,971.804 1409.7981,979.88055 C1425.9464,996.0336 1440.4042,1013.88 1452.7694,1032.7847 C1465.1349,1051.6895 1475.4077,1071.6526 1483.4697,1092.0447 C1491.5319,1112.4366 1497.3829,1133.2574 1501.1759,1153.626 C1504.9688,1173.9945 1506.7032,1193.9105 1506.6992,1213.8281 C1506.6952,1233.7458 1504.9526,1253.6654 1501.1759,1274.0304 C1497.3992,1294.3954 1491.5881,1315.2058 1483.5072,1335.5961 C1467.3452,1376.3765 1442.1028,1415.476 1409.829,1447.7797 C1393.692,1463.9314 1375.7974,1478.3844 1356.8943,1490.7467 C1337.9912,1503.1093 1318.0798,1513.3812 1297.6344,1521.447 C1277.1888,1529.5131 1256.2092,1535.3732 1236.0531,1539.1532 C1215.8969,1542.9331 1196.5642,1544.633 1174.4255,1544.7296 C1169.693,1544.7504 1164.8323,1544.6978 1159.6495,1544.6765 C1154.4669,1544.6554 1148.9623,1544.6654 1143.4988,1544.6716 C1132.5715,1544.684 1121.8081,1544.6803 1111.0289,1544.6782 C1089.4707,1544.674 1067.8495,1544.6759 1046.2407,1544.6765 C1024.6318,1544.6772 1003.03534,1544.6768 981.43567,1544.6765 C959.83606,1544.6763 938.2333,1544.6764 916.6311,1544.6764 C873.4265,1544.6765 830.2237,1544.6765 787.02045,1544.6765 C743.81726,1544.6765 700.6136,1544.6765 657.41034,1544.6765 C547.6846,1434.3938 437.95874,1324.111 328.23297,1213.8281 z" stroke="Black" stroke-width="0" fill="#B8B8B8" fill-opacity="1" />
    <path d="M1696.572,827.8384 C1696.5073,940.588 1696.4427,1053.3376 1696.378,1166.0873 C1713.6189,1166.093 1730.7485,1166.1196 1748.0529,1166.1134 C1756.7051,1166.1102 1765.4009,1166.0988 1773.8427,1166.1355 C1782.2844,1166.1722 1790.4722,1166.2571 1799.6643,1166.1516 C1808.8562,1166.046 1819.0524,1165.7501 1828.321,1165.0197 C1837.5896,1164.2892 1845.9307,1163.1245 1853.6973,1161.5894 C1869.2305,1158.5193 1882.466,1153.968 1894.0228,1147.8148 C1905.5797,1141.6614 1915.4581,1133.9058 1924.5476,1124.3794 C1933.637,1114.8529 1941.9374,1103.5555 1948.7885,1090.8225 C1955.6393,1078.0895 1961.0408,1063.9207 1964.6198,1049.1548 C1968.1985,1034.389 1969.955,1019.02594 1969.8804,1000.95056 C1969.8431,991.91284 1969.3481,982.1972 1968.2705,972.97345 C1967.1929,963.7498 1965.5327,955.0182 1963.311,946.58795 C1958.8678,929.72754 1952.1787,914.07275 1943.4163,900.00757 C1939.0352,892.975 1934.1355,886.3398 1928.805,880.2667 C1923.4746,874.1937 1917.7133,868.68286 1911.6484,863.72876 C1905.5837,858.7747 1899.2155,854.3774 1891.9106,850.35095 C1884.6056,846.32446 1876.3639,842.6689 1869.5916,840.13324 C1862.8192,837.5976 1857.5162,836.1819 1850.656,834.7896 C1843.7959,833.3973 1835.3788,832.0284 1826.7263,830.96625 C1818.0741,829.90405 1809.1865,829.1487 1797.8026,828.66315 C1786.4186,828.1776 1772.5381,827.9619 1763.8846,827.8804 C1755.2312,827.7987 1751.805,827.85126 1747.0564,827.8699 C1742.308,827.8884 1736.237,827.8731 1730.3937,827.8636 C1718.7065,827.8446 1707.9286,827.84894 1696.572,827.8384 z M1727.6713,860.96985 C1735.3221,860.9746 1742.973,860.9794 1750.6239,860.98413 C1797.2645,861.0132 1830.735,864.25085 1851.0355,870.69714 C1878.1028,879.29144 1899.2069,895.157 1914.3483,918.2938 C1929.4895,941.4307 1937.0508,969.3121 1937.032,1001.93787 C1937.0142,1033.0308 1930.0104,1059.3329 1916.0205,1080.8445 C1902.0308,1102.3558 1882.8215,1117.2395 1858.3931,1125.4951 C1841.0282,1131.3047 1809.9082,1134.1956 1765.0331,1134.1677 C1752.527,1134.1598 1740.0208,1134.1521 1727.5146,1134.1443 C1727.5669,1043.0862 1727.6191,952.02795 1727.6713,860.96985 z" stroke="Black" stroke-width="0" fill="#B8B8B8" fill-opacity="1" />
    <path d="M2032.941,1166.2969 C2094.5156,1166.3352 2156.0898,1166.3735 2217.6646,1166.4119 C2217.671,1155.3745 2217.677,1144.3373 2217.6833,1133.2998 C2166.923,1133.2682 2116.1628,1133.2367 2065.4026,1133.205 C2065.4277,1088.9022 2065.4534,1044.5995 2065.4788,1000.29694 C2116.2393,1000.3284 2166.9993,1000.3601 2217.7598,1000.3917 C2217.766,989.35443 2217.7725,978.317 2217.7788,967.27966 C2167.0183,967.24805 2116.258,967.2165 2065.4976,967.1848 C2065.518,931.85 2065.538,896.51514 2065.5586,861.1803 C2116.7605,861.21216 2167.962,861.244 2219.1638,861.27594 C2219.1702,850.2385 2219.1765,839.20123 2219.1826,828.1639 C2157.167,828.12524 2095.1511,828.0867 2033.1351,828.048 C2033.0704,940.7976 2033.0057,1053.5472 2032.941,1166.2969 z" stroke="Black" stroke-width="0" fill="#B8B8B8" fill-opacity="1" />
    <path d="M2348.8516,1261.7885 C2348.7998,1324.9731 2348.8035,1409.2998 2348.7092,1456.2217 C2348.6855,1467.952 2348.6558,1477.3447 2348.5112,1484.2887 C2348.367,1491.2325 2348.1077,1495.7277 2347.8354,1499.664 C2347.291,1507.5366 2346.6938,1513.1737 2345.302,1518.8646 C2343.9102,1524.5553 2341.7236,1530.2998 2339.1685,1535.4742 C2336.6133,1540.6488 2333.6897,1545.2534 2330.3147,1549.4379 C2326.9397,1553.6224 2323.113,1557.3868 2318.8542,1560.6981 C2314.5952,1564.0094 2309.9038,1566.8678 2304.9001,1569.1975 C2299.8965,1571.527 2294.5806,1573.328 2289.3604,1574.5339 C2284.1404,1575.74 2279.0166,1576.3512 2273.142,1576.3059 C2267.268,1576.2607 2260.6436,1575.5591 2254.148,1574.0234 C2247.6526,1572.4878 2241.2861,1570.1183 2235.2695,1567.1997 C2229.2532,1564.281 2223.5867,1560.8131 2218.8882,1557.0144 C2214.19,1553.2156 2210.4595,1549.0858 2207.3845,1544.6477 C2204.3096,1540.2095 2201.8896,1535.4629 2199.9648,1529.553 C2198.0405,1523.643 2196.611,1516.5693 2195.8362,1511.1836 C2195.0613,1505.7976 2194.941,1502.0992 2194.8247,1495.3741 C2194.7083,1488.6489 2194.596,1478.897 2194.5486,1457.1863 C2194.4539,1413.7649 2194.619,1322.5085 2194.6184,1261.6925 C2183.5046,1261.6857 2172.3906,1261.6787 2161.2769,1261.6718 C2161.251,1296.3898 2161.2507,1328.3632 2161.2183,1363.7673 C2161.186,1399.1714 2161.1213,1438.0062 2161.196,1461.993 C2161.2334,1473.9865 2161.3057,1482.2681 2161.5288,1489.6335 C2161.752,1496.9991 2162.1257,1503.449 2162.6658,1509.4382 C2163.2056,1515.4277 2163.9111,1520.9568 2164.5703,1525.277 C2165.2295,1529.5972 2165.842,1532.7085 2167.243,1537.1495 C2168.6438,1541.5907 2170.8328,1547.3617 2173.3013,1552.459 C2175.7698,1557.5563 2178.517,1561.9799 2181.726,1566.2281 C2188.1438,1574.7247 2196.4072,1582.52 2205.7712,1588.9111 C2215.1355,1595.302 2225.6003,1600.2888 2237.4602,1603.5897 C2249.32,1606.8907 2262.5747,1608.506 2274.9382,1608.4994 C2287.302,1608.4928 2298.7742,1606.8644 2309.3884,1603.347 C2320.0032,1599.8297 2329.7598,1594.4233 2338.3447,1587.8438 C2346.9294,1581.2642 2354.3428,1573.5111 2360.1885,1565.3514 C2366.034,1557.1918 2370.3115,1548.6254 2373.3438,1539.1897 C2374.86,1534.4719 2376.065,1529.5367 2377.1309,1524.1802 C2378.1965,1518.8239 2379.1235,1513.0458 2379.8696,1506.9576 C2380.6155,1500.8695 2381.1807,1494.4712 2381.5178,1487.5643 C2381.8555,1480.6573 2381.9648,1473.242 2382.032,1461.7466 C2382.1663,1438.7559 2382.1309,1399.4448 2382.1348,1363.9047 C2382.1384,1328.3645 2382.1816,1296.5951 2382.1934,1261.8091 C2371.0793,1261.8022 2359.9656,1261.7953 2348.8516,1261.7885 z" stroke="Black" stroke-width="0" fill="#B8B8B8" fill-opacity="1" />
    <path d="M1858.8955,1329.3177 C1867.972,1322.3483 1877.0486,1315.3789 1886.1251,1308.4095 C1870.8651,1287.2451 1856.3951,1272.7113 1842.7153,1264.8081 C1829.0354,1256.9048 1814.3326,1252.9482 1798.6069,1252.9385 C1783.7885,1252.9292 1770.0642,1256.4082 1757.4342,1263.3754 C1744.8042,1270.3425 1735.008,1279.8793 1728.0454,1291.9852 C1721.0829,1304.0913 1717.5974,1317.5026 1717.589,1332.2191 C1717.5782,1350.7681 1723.4656,1368.0176 1735.2507,1383.9678 C1742.0496,1393.4763 1759.3542,1408.8934 1787.1644,1430.219 C1814.8236,1451.391 1833.8656,1469.4918 1844.2903,1484.5214 C1851.8446,1495.4102 1855.6185,1506.5265 1855.6119,1517.8704 C1855.6062,1527.8347 1853.0303,1537.2609 1847.884,1546.1489 C1842.7378,1555.0369 1835.2489,1562.1222 1825.4172,1567.4048 C1815.5857,1572.6874 1805.0752,1575.3252 1793.8856,1575.3182 C1767.7264,1575.302 1744.6777,1556.6621 1724.7396,1519.3988 C1715.2858,1525.1414 1705.8319,1530.8842 1696.378,1536.627 C1710.2744,1562.3894 1725.4604,1580.7561 1741.9359,1591.727 C1758.4115,1602.698 1776.7802,1608.1898 1797.0422,1608.2024 C1823.3525,1608.2186 1845.6989,1599.1881 1864.0812,1581.1105 C1882.4634,1563.033 1891.6616,1541.7305 1891.6757,1517.203 C1891.6854,1500.1871 1886.3273,1483.2445 1875.6011,1466.3751 C1864.8749,1449.5059 1845.0776,1430.2549 1816.209,1408.6221 C1791.8748,1390.3646 1777.5164,1379.0885 1773.1338,1374.7935 C1765.1244,1366.6637 1759.6096,1359.1488 1756.5894,1352.2485 C1753.5691,1345.3484 1752.0612,1338.2191 1752.0654,1330.861 C1752.0723,1318.7505 1756.3497,1308.5588 1764.898,1300.2861 C1773.4459,1292.0135 1784.4487,1287.8813 1797.9064,1287.8896 C1808.3397,1287.8961 1817.9779,1290.5848 1826.8204,1295.9557 C1835.6631,1301.3267 1846.3549,1312.4473 1858.8955,1329.3177 z" stroke="Black" stroke-width="0" fill="#B8B8B8" fill-opacity="1" />
    <path d="M2794.8804,1004.66016 C2794.874,1015.5443 2794.868,1026.4283 2794.8616,1037.3124 C2829.364,1037.3339 2863.8662,1037.3553 2898.3687,1037.3768 C2894.0837,1068.6466 2880.386,1094.0853 2857.2751,1113.6929 C2834.1643,1133.3005 2805.9094,1143.0939 2772.5105,1143.0731 C2744.997,1143.056 2719.694,1136.4867 2696.602,1123.3656 C2673.51,1110.2444 2655.423,1092.2207 2642.3416,1069.2947 C2629.26,1046.3687 2622.7266,1022.1821 2622.7412,996.73486 C2622.7554,971.9009 2629.0955,948.33545 2641.7615,926.03864 C2654.4277,903.74194 2672.2776,886.0856 2695.311,873.0697 C2718.3445,860.05383 2742.5884,853.55383 2768.042,853.56964 C2788.4932,853.58246 2809.4934,858.386 2831.0427,867.9805 C2852.592,877.57495 2872.41,891.6523 2890.4966,910.2124 C2898.8877,901.93964 2907.2788,893.6668 2915.6702,885.39404 C2892.5835,862.53845 2868.905,845.9293 2844.6343,835.5667 C2820.3635,825.2041 2794.4714,820.0142 2766.958,819.9971 C2732.9705,819.9759 2702.5098,827.73676 2675.5757,843.27954 C2648.6418,858.8224 2627.4424,880.3857 2611.9778,907.9695 C2596.5134,935.5532 2588.7717,965.36456 2588.7534,997.40356 C2588.7285,1040.48 2602.1694,1078.4291 2629.0757,1111.2513 C2664.0684,1153.8896 2711.5798,1175.2274 2771.6094,1175.2648 C2821.0457,1175.2955 2860.5222,1159.9523 2890.0398,1129.2346 C2919.5571,1098.5171 2934.478,1057.0212 2934.8022,1004.7473 C2888.1616,1004.71826 2841.521,1004.6892 2794.8804,1004.66016 z" stroke="Black" stroke-width="0" fill="#B8B8B8" fill-opacity="1" />
    <path d="M3073.8662,1253.7311 C3042.6956,1253.7115 3013.715,1261.55 2986.9246,1277.2463 C2960.1338,1292.9426 2938.9763,1314.6592 2923.452,1342.3962 C2907.9277,1370.1333 2900.1562,1400.2513 2900.1375,1432.7501 C2900.1096,1481.4984 2917.108,1523.0522 2951.1328,1557.4119 C2985.1575,1591.7715 3026.908,1608.9667 3076.384,1608.9974 C3125.2551,1609.0278 3166.685,1591.8077 3200.6738,1557.337 C3234.6626,1522.8665 3251.671,1480.8737 3251.6995,1431.3589 C3251.728,1381.3843 3234.73,1339.2938 3200.705,1305.0875 C3166.6802,1270.8812 3124.4006,1253.7625 3073.8662,1253.7311 z" stroke="#B8B8B8" stroke-width="0.24" stroke-linecap="round" stroke-linejoin="round" fill="none" />
    <path d="M1858.8955,1329.3177 C1867.972,1322.3483 1877.0486,1315.3789 1886.1251,1308.4095 C1870.8651,1287.2451 1856.3951,1272.7113 1842.7153,1264.8081 C1829.0354,1256.9048 1814.3326,1252.9482 1798.6069,1252.9385 C1783.7885,1252.9292 1770.0642,1256.4082 1757.4342,1263.3754 C1744.8042,1270.3425 1735.008,1279.8793 1728.0454,1291.9852 C1721.0829,1304.0913 1717.5974,1317.5026 1717.589,1332.2191 C1717.5782,1350.7681 1723.4656,1368.0176 1735.2507,1383.9678 C1742.0496,1393.4763 1759.3542,1408.8934 1787.1644,1430.219 C1814.8236,1451.391 1833.8656,1469.4918 1844.2903,1484.5214 C1851.8446,1495.4102 1855.6185,1506.5265 1855.6119,1517.8704 C1855.6062,1527.8347 1853.0303,1537.2609 1847.884,1546.1489 C1842.7378,1555.0369 1835.2489,1562.1222 1825.4172,1567.4048 C1815.5857,1572.6874 1805.0752,1575.3252 1793.8856,1575.3182 C1767.7264,1575.302 1744.6777,1556.6621 1724.7396,1519.3988 C1715.2858,1525.1414 1705.8319,1530.8842 1696.378,1536.627 C1710.2744,1562.3894 1725.4604,1580.7561 1741.9359,1591.727 C1758.4115,1602.698 1776.7802,1608.1898 1797.0422,1608.2024 C1823.3525,1608.2186 1845.6989,1599.1881 1864.0812,1581.1105 C1882.4634,1563.033 1891.6616,1541.7305 1891.6757,1517.203 C1891.6854,1500.1871 1886.3273,1483.2445 1875.6011,1466.3751 C1864.8749,1449.5059 1845.0776,1430.2549 1816.209,1408.6221 C1791.8748,1390.3646 1777.5164,1379.0885 1773.1338,1374.7935 C1765.1244,1366.6637 1759.6096,1359.1488 1756.5894,1352.2485 C1753.5691,1345.3484 1752.0612,1338.2191 1752.0654,1330.861 C1752.0723,1318.7505 1756.3497,1308.5588 1764.898,1300.2861 C1773.4459,1292.0135 1784.4487,1287.8813 1797.9064,1287.8896 C1808.3397,1287.8961 1817.9779,1290.5848 1826.8204,1295.9557 C1835.6631,1301.3267 1846.3549,1312.4473 1858.8955,1329.3177 z" stroke="#B8B8B8" stroke-width="0.24" stroke-linecap="round" stroke-linejoin="round" fill="none" />
    <path d="M2032.941,1166.2969 L2217.6646,1166.4119 L2217.6833,1133.2998 L2065.4026,1133.205 L2065.4788,1000.29694 L2217.7598,1000.3917 L2217.7788,967.27966 L2065.4976,967.1848 L2065.5586,861.1803 L2219.1638,861.27594 L2219.1826,828.1639 L2033.1351,828.048 z" stroke="#B8B8B8" stroke-width="0.24" stroke-linecap="round" stroke-linejoin="round" fill="none" />
    <path d="M2003.4474,1599.8226 L2037.4695,1599.8439 L2037.6445,1294.707 L2112.0393,1294.7534 L2112.0583,1261.6412 L1929.2466,1261.5277 L1929.2275,1294.6396 L2003.6224,1294.686 z" stroke="#B8B8B8" stroke-width="0.24" stroke-linecap="round" stroke-linejoin="round" fill="none" />
    <path d="M3075.3215,1286.614 C3050.634,1286.5988 3027.231,1293.1046 3005.1116,1306.132 C2982.9922,1319.1592 2965.7163,1336.7147 2953.2844,1358.7983 C2940.8525,1380.8822 2934.629,1405.5015 2934.613,1432.6566 C2934.59,1472.8538 2948.3147,1506.8068 2975.7869,1534.5155 C3003.2593,1562.2241 3036.382,1576.0905 3075.1553,1576.1146 C3101.0522,1576.1306 3125.0227,1569.7789 3147.0664,1557.0594 C3169.11,1544.34 3186.3098,1526.9376 3198.666,1504.8528 C3211.0225,1482.7677 3217.2085,1458.2242 3217.2239,1431.2225 C3217.2393,1404.3741 3211.0813,1380.092 3198.7502,1358.3761 C3186.419,1336.6602 3169.05,1319.2748 3146.643,1306.2198 C3124.236,1293.1649 3100.4622,1286.6296 3075.3215,1286.614 z" stroke="#B8B8B8" stroke-width="0.24" stroke-linecap="round" stroke-linejoin="round" fill="none" />
    <path d="M2426.1697,875.20154 C2411.3215,854.03735 2397.2422,839.5038 2383.9312,831.6007 C2370.6204,823.69763 2356.3142,819.74133 2341.0125,819.73175 C2326.5935,819.72284 2313.2393,823.20197 2300.95,830.1693 C2288.6604,837.1367 2279.1282,846.67346 2272.3533,858.77966 C2265.5781,870.88586 2262.1865,884.29724 2262.1782,899.0137 C2262.1672,917.56256 2267.8958,934.812 2279.3628,950.76196 C2285.9783,960.27045 2302.816,975.6873 2329.876,997.0124 C2356.7888,1018.1841 2375.3171,1036.2847 2385.4602,1051.314 C2392.8108,1062.2026 2396.4824,1073.3188 2396.476,1084.6628 C2396.4702,1094.6271 2393.9636,1104.0533 2388.9563,1112.9414 C2383.9485,1121.8295 2376.6616,1128.9149 2367.095,1134.1978 C2357.5283,1139.4805 2347.3013,1142.1184 2336.4136,1142.1117 C2310.9597,1142.0958 2288.533,1123.4563 2269.133,1086.1931 C2259.934,1091.936 2250.735,1097.679 2241.5361,1103.4218 C2255.0574,1129.1841 2269.8335,1147.5505 2285.8645,1158.5212 C2301.8955,1169.492 2319.7688,1174.9834 2339.4844,1174.9957 C2365.0854,1175.0116 2386.829,1165.9807 2404.7158,1147.9028 C2422.6028,1129.825 2431.5532,1108.5222 2431.5674,1083.9949 C2431.5771,1066.979 2426.3638,1050.0365 2415.927,1033.1674 C2405.4902,1016.29816 2386.2273,997.0474 2358.1377,975.41516 C2334.46,957.1581 2320.4888,945.88214 2316.2246,941.58716 C2308.4312,933.4576 2303.0652,925.9427 2300.1265,919.0425 C2297.188,912.14233 2295.7205,905.0132 2295.7246,897.6549 C2295.7317,885.54443 2299.894,875.35284 2308.2117,867.08 C2316.5295,858.8072 2327.2354,854.67487 2340.3303,854.683 C2350.4824,854.68933 2359.8604,857.37787 2368.4646,862.74854 C2377.0688,868.1193 2387.4717,879.2398 2399.674,896.11005 C2408.5059,889.1405 2417.338,882.171 2426.1697,875.20154 z" stroke="#B8B8B8" stroke-width="0.24" stroke-linecap="round" stroke-linejoin="round" fill="none" />
    <path d="M1727.6713,860.96985 C1727.6191,952.02795 1727.5669,1043.0862 1727.5146,1134.1443 C1740.0208,1134.1521 1752.527,1134.1598 1765.0331,1134.1677 C1809.9082,1134.1956 1841.0282,1131.3047 1858.3931,1125.4951 C1882.8215,1117.2395 1902.0308,1102.3558 1916.0205,1080.8445 C1930.0104,1059.3329 1937.0142,1033.0308 1937.032,1001.93787 C1937.0508,969.3121 1929.4895,941.4307 1914.3483,918.2938 C1899.2069,895.157 1878.1028,879.29144 1851.0355,870.69714 C1830.735,864.25085 1797.2645,861.0132 1750.6239,860.98413 C1742.973,860.9794 1735.3221,860.9746 1727.6713,860.96985 z" stroke="#B8B8B8" stroke-width="0.24" stroke-linecap="round" stroke-linejoin="round" fill="none" />
    <path d="M1696.572,827.8384 C1696.5073,940.588 1696.4427,1053.3376 1696.378,1166.0873 C1713.6189,1166.093 1730.7485,1166.1196 1748.0529,1166.1134 C1756.7051,1166.1102 1765.4009,1166.0988 1773.8427,1166.1355 C1782.2844,1166.1722 1790.4722,1166.2571 1799.6643,1166.1516 C1808.8562,1166.046 1819.0524,1165.7501 1828.321,1165.0197 C1837.5896,1164.2892 1845.9307,1163.1245 1853.6973,1161.5894 C1869.2305,1158.5193 1882.466,1153.968 1894.0228,1147.8148 C1905.5797,1141.6614 1915.4581,1133.9058 1924.5476,1124.3794 C1933.637,1114.8529 1941.9374,1103.5555 1948.7885,1090.8225 C1955.6393,1078.0895 1961.0408,1063.9207 1964.6198,1049.1548 C1968.1985,1034.389 1969.955,1019.02594 1969.8804,1000.95056 C1969.8431,991.91284 1969.3481,982.1972 1968.2705,972.97345 C1967.1929,963.7498 1965.5327,955.0182 1963.311,946.58795 C1958.8678,929.72754 1952.1787,914.07275 1943.4163,900.00757 C1939.0352,892.975 1934.1355,886.3398 1928.805,880.2667 C1923.4746,874.1937 1917.7133,868.68286 1911.6484,863.72876 C1905.5837,858.7747 1899.2155,854.3774 1891.9106,850.35095 C1884.6056,846.32446 1876.3639,842.6689 1869.5916,840.13324 C1862.8192,837.5976 1857.5162,836.1819 1850.656,834.7896 C1843.7959,833.3973 1835.3788,832.0284 1826.7263,830.96625 C1818.0741,829.90405 1809.1865,829.1487 1797.8026,828.66315 C1786.4186,828.1776 1772.5381,827.9619 1763.8846,827.8804 C1755.2312,827.7987 1751.805,827.85126 1747.0564,827.8699 C1742.308,827.8884 1736.237,827.8731 1730.3937,827.8636 C1718.7065,827.8446 1707.9286,827.84894 1696.572,827.8384 z" stroke="#B8B8B8" stroke-width="0.24" stroke-linecap="round" stroke-linejoin="round" fill="none" />
    <path d="M2527.9646,1166.6051 L2528.1587,828.3563 L2495.716,828.3361 L2495.5222,1166.585 z" stroke="#B8B8B8" stroke-width="0.24" stroke-linecap="round" stroke-linejoin="round" fill="none" />
    <path d="M2348.8516,1261.7885 C2348.7998,1324.9731 2348.8035,1409.2998 2348.709,1456.2217 C2348.6855,1467.952 2348.6558,1477.3447 2348.5112,1484.2887 C2348.367,1491.2325 2348.108,1495.7275 2347.8357,1499.664 C2347.291,1507.5366 2346.6929,1513.1738 2345.302,1518.8646 C2343.9111,1524.5552 2341.7275,1530.2993 2339.1685,1535.4742 C2336.6096,1540.6493 2333.675,1545.2555 2330.3147,1549.4379 C2326.954,1553.6205 2323.168,1557.3793 2318.8542,1560.6981 C2314.5405,1564.0171 2309.6997,1566.8962 2304.7659,1569.2266 C2294.8984,1573.8871 2284.6594,1576.3523 2272.84,1576.2887 C2266.9307,1576.257 2260.626,1575.593 2254.148,1574.0234 C2247.6702,1572.454 2241.0193,1569.9791 2235.032,1567.0831 C2223.0571,1561.2914 2213.737,1553.8157 2207.3845,1544.6477 C2201.0317,1535.4797 2197.6465,1524.6196 2195.8362,1511.1836 C2195.3909,1508.2584 2195.0342,1502.7953 2194.8247,1495.3741 C2194.615,1487.9531 2194.5527,1478.5741 2194.5308,1457.0526 C2194.4866,1414.0098 2194.6038,1322.3972 2194.6184,1261.6925 C2183.5046,1261.6857 2172.3906,1261.6787 2161.2769,1261.6718 C2161.251,1296.3898 2161.2507,1328.3632 2161.2183,1363.7673 C2161.186,1399.1714 2161.1213,1438.0062 2161.196,1461.993 C2161.2334,1473.9865 2161.3057,1482.2681 2161.5288,1489.6335 C2161.752,1496.9991 2162.1257,1503.449 2162.6658,1509.4382 C2163.2056,1515.4277 2163.9111,1520.9568 2164.5703,1525.277 C2165.2295,1529.5972 2165.842,1532.7085 2167.243,1537.1495 C2168.6438,1541.5907 2170.8328,1547.3617 2173.3013,1552.459 C2175.7698,1557.5563 2178.517,1561.9799 2181.726,1566.2281 C2188.1438,1574.7247 2196.4072,1582.52 2205.7712,1588.9111 C2215.1355,1595.302 2225.6003,1600.2888 2237.4602,1603.5897 C2249.32,1606.8907 2262.5747,1608.506 2274.9382,1608.4994 C2287.302,1608.4928 2298.7742,1606.8644 2309.3884,1603.347 C2320.0032,1599.8297 2329.7598,1594.4233 2338.3447,1587.8438 C2346.9294,1581.2642 2354.3428,1573.5111 2360.1885,1565.3514 C2366.034,1557.1918 2370.3115,1548.6254 2373.3438,1539.1897 C2374.86,1534.4719 2376.065,1529.5367 2377.1309,1524.1802 C2378.1965,1518.8239 2379.1235,1513.0458 2379.8696,1506.9576 C2380.6155,1500.8695 2381.1807,1494.4712 2381.5178,1487.5643 C2381.8555,1480.6573 2381.9648,1473.242 2382.032,1461.7466 C2382.1663,1438.7559 2382.1309,1399.4448 2382.1348,1363.9047 C2382.1384,1328.3645 2382.1816,1296.5951 2382.1934,1261.8091 C2371.0793,1261.8022 2359.9656,1261.7953 2348.8516,1261.7885 z" stroke="#B8B8B8" stroke-width="0.24" stroke-linecap="round" stroke-linejoin="round" fill="none" />
    <path d="M2794.8804,1004.66016 C2794.874,1015.5443 2794.868,1026.4283 2794.8616,1037.3124 C2829.364,1037.3339 2863.8662,1037.3553 2898.3687,1037.3768 C2894.0837,1068.6466 2880.386,1094.0853 2857.2751,1113.6929 C2834.1643,1133.3005 2805.9094,1143.0939 2772.5105,1143.0731 C2744.997,1143.056 2719.694,1136.4867 2696.602,1123.3656 C2673.51,1110.2444 2655.423,1092.2207 2642.3416,1069.2947 C2629.26,1046.3687 2622.7266,1022.1821 2622.7412,996.73486 C2622.7554,971.9009 2629.0955,948.33545 2641.7615,926.03864 C2654.4277,903.74194 2672.2776,886.0856 2695.311,873.0697 C2718.3445,860.05383 2742.5884,853.55383 2768.042,853.56964 C2788.4932,853.58246 2809.4934,858.386 2831.0427,867.9805 C2852.592,877.57495 2872.41,891.6523 2890.4966,910.2124 C2898.8877,901.93964 2907.2788,893.6668 2915.6702,885.39404 C2892.5835,862.53845 2868.905,845.9293 2844.6343,835.5667 C2820.3635,825.2041 2794.4714,820.0142 2766.958,819.9971 C2732.9705,819.9759 2702.5098,827.73676 2675.5757,843.27954 C2648.6418,858.8224 2627.4424,880.3857 2611.9778,907.9695 C2596.5134,935.5532 2588.7717,965.36456 2588.7534,997.40356 C2588.7285,1040.48 2602.1694,1078.4291 2629.0757,1111.2513 C2664.0684,1153.8896 2711.5798,1175.2274 2771.6094,1175.2648 C2821.0457,1175.2955 2860.5222,1159.9523 2890.0398,1129.2346 C2919.5571,1098.5171 2934.478,1057.0212 2934.8022,1004.7473 C2888.1616,1004.71826 2841.521,1004.6892 2794.8804,1004.66016 z" stroke="#B8B8B8" stroke-width="0.24" stroke-linecap="round" stroke-linejoin="round" fill="none" />
    <path d="M3220.0442,828.78723 L3219.8953,1088.0715 L3003.9814,828.6526 L2996.9194,828.6482 L2996.7253,1166.8971 L3030.2712,1166.918 L3030.4182,910.78815 L3244.5679,1167.0514 L3251.8508,1167.0559 L3252.045,828.8071 z" stroke="#B8B8B8" stroke-width="0.24" stroke-linecap="round" stroke-linejoin="round" fill="none" />
    <path d="M2464.2998,1261.8601 C2464.235,1374.6097 2464.1704,1487.3594 2464.1057,1600.1089 C2481.8242,1600.1149 2499.4287,1600.142 2517.213,1600.1359 C2526.1047,1600.1328 2535.0415,1600.1216 2543.7173,1600.1584 C2552.393,1600.1953 2560.8076,1600.2803 2570.2544,1600.1749 C2579.7012,1600.0696 2590.18,1599.7738 2599.7053,1599.0435 C2609.2307,1598.3132 2617.803,1597.1486 2625.785,1595.6136 C2641.7485,1592.5437 2655.3506,1587.9928 2667.2278,1581.8396 C2679.105,1575.6865 2689.2568,1567.931 2698.5981,1558.4048 C2707.9395,1548.8784 2716.4695,1537.5812 2723.5103,1524.8481 C2730.5508,1512.1154 2736.1018,1497.9467 2739.7798,1483.1809 C2743.4575,1468.415 2745.2622,1453.052 2745.1853,1434.9767 C2745.147,1425.939 2744.638,1416.2233 2743.5305,1406.9995 C2742.4229,1397.7759 2740.7166,1389.0442 2738.4333,1380.6139 C2733.8665,1363.7534 2726.9917,1348.0985 2717.986,1334.0332 C2713.4836,1327.0005 2708.448,1320.3652 2702.9697,1314.2921 C2697.4915,1308.2191 2691.5703,1302.7081 2685.3374,1297.7539 C2679.1045,1292.7997 2672.5598,1288.4023 2665.0522,1284.3759 C2657.545,1280.3492 2649.0747,1276.6935 2642.1145,1274.1577 C2635.1545,1271.622 2629.7043,1270.2062 2622.654,1268.8138 C2615.604,1267.4214 2606.9534,1266.0524 2598.0613,1264.9901 C2589.1692,1263.9277 2580.0354,1263.1722 2568.336,1262.6865 C2556.6362,1262.2008 2542.371,1261.9849 2533.478,1261.9031 C2524.5847,1261.8214 2521.0635,1261.8738 2516.1833,1261.8923 C2511.3032,1261.9109 2505.0642,1261.8955 2499.0586,1261.8859 C2487.0479,1261.8667 2475.971,1261.8708 2464.2998,1261.8601 z" stroke="#B8B8B8" stroke-width="0.24" stroke-linecap="round" stroke-linejoin="round" fill="none" />
    <path d="M250.64511,1213.8281 C378.65854,1342.4915 506.672,1471.1547 634.68536,1599.818 C784.534,1599.818 1061.255,1599.818 1147.5729,1599.818 C1199.271,1599.818 1182.6688,1599.818 1175.9967,1599.818 C1169.3246,1599.8179 1172.5825,1599.8179 1174.5835,1599.8179 C1178.5858,1599.8177 1177.5605,1599.8176 1176.9769,1599.8175 C1175.8092,1599.8171 1176.4071,1599.8168 1176.8356,1599.8162 C1177.6924,1599.8151 1177.8715,1599.8132 1178.1821,1599.8109 C1178.4927,1599.8086 1178.9349,1599.8057 1179.3462,1599.8021 C1179.7574,1599.7986 1180.138,1599.7946 1180.52,1599.7898 C1182.0487,1599.7711 1183.6067,1599.743 1185.1528,1599.7059 C1185.9259,1599.6873 1186.696,1599.6664 1187.4663,1599.6431 C1188.2366,1599.6199 1189.0071,1599.5945 1189.7769,1599.5668 C1191.316,1599.5112 1192.8519,1599.4465 1194.3851,1599.3728 C1195.9181,1599.2991 1197.4484,1599.2163 1198.9755,1599.1246 C1200.5026,1599.0331 1202.0267,1598.9324 1203.5479,1598.8229 C1205.0688,1598.7136 1206.5868,1598.5952 1208.1016,1598.4683 C1209.6163,1598.3413 1211.1279,1598.2054 1212.6361,1598.061 C1215.6527,1597.7722 1218.6562,1597.4489 1221.6464,1597.0916 C1224.6365,1596.7343 1227.6133,1596.3431 1230.575,1595.919 C1233.5366,1595.4948 1236.4833,1595.0376 1239.418,1594.5476 C1242.3528,1594.0577 1245.2754,1593.5349 1248.1748,1592.9818 C1254.4875,1591.7776 1260.69,1590.4292 1266.7614,1588.9594 C1272.8329,1587.4896 1278.7733,1585.8984 1284.5973,1584.1825 C1290.4213,1582.4666 1296.1285,1580.626 1301.6605,1578.7391 C1307.1925,1576.8522 1312.549,1574.919 1318.701,1572.4398 C1329.6404,1568.0317 1343.0952,1561.8976 1355.1093,1555.6681 C1367.1233,1549.4385 1377.6965,1543.1133 1387.771,1536.4469 C1399.4373,1528.7272 1410.4348,1520.5499 1420.5865,1512.3119 C1430.7383,1504.0739 1440.0444,1495.7754 1449.6449,1486.0071 C1466.7097,1468.6438 1484.7042,1446.6366 1498.6779,1425.5469 C1506.3412,1413.9813 1512.795,1402.6918 1518.7255,1391.0992 C1524.656,1379.5068 1530.0631,1367.6116 1534.8265,1355.5857 C1553.039,1309.6053 1561.8407,1261.7168 1561.8407,1213.8282 C1561.8407,1165.9396 1553.039,1118.051 1534.8265,1072.0707 C1530.0631,1060.0448 1524.656,1048.1495 1518.7255,1036.5571 C1512.795,1024.9646 1506.3412,1013.67505 1498.6779,1002.10944 C1484.7042,981.0198 1466.7097,959.0126 1449.6449,941.64923 C1440.0446,931.8809 1430.7383,923.5824 1420.5865,915.3445 C1410.4348,907.10657 1399.4373,898.9292 1387.771,891.20935 C1377.6965,884.543 1367.1233,878.2179 1355.1093,871.9883 C1343.0952,865.75867 1329.6404,859.6247 1318.701,855.2165 C1312.549,852.7374 1307.1925,850.80414 1301.6605,848.91724 C1296.1285,847.0304 1290.4213,845.18976 1284.5973,843.4739 C1278.7733,841.758 1272.8329,840.16675 1266.7614,838.69696 C1260.69,837.2271 1254.4875,835.8787 1248.1748,834.67456 C1245.2754,834.1214 1242.3528,833.5987 1239.418,833.1087 C1236.4833,832.6188 1233.5366,832.1616 1230.575,831.7374 C1227.6133,831.31323 1224.6366,830.92206 1221.6464,830.56476 C1218.6562,830.20746 1215.6527,829.8841 1212.6362,829.5953 C1211.1279,829.45087 1209.6163,829.31506 1208.1016,829.18805 C1206.5868,829.0611 1205.0688,828.94275 1203.5479,828.8334 C1202.0267,828.72394 1200.5026,828.6233 1198.9756,828.5317 C1197.4484,828.44006 1195.9181,828.3573 1194.3851,828.28357 C1192.8519,828.2099 1191.316,828.14526 1189.7769,828.08966 C1189.0071,828.0619 1188.2366,828.0364 1187.4663,828.0132 C1186.696,827.99 1185.9259,827.96906 1185.1528,827.95044 C1183.6067,827.9132 1182.0487,827.8852 1180.52,827.8665 C1180.138,827.8618 1179.7574,827.8577 1179.3463,827.85425 C1178.9349,827.8507 1178.4927,827.8478 1178.1821,827.84546 C1177.8715,827.8431 1177.6924,827.8413 1176.8356,827.84015 C1176.4071,827.8396 1175.8092,827.8392 1176.9769,827.83887 C1177.5607,827.8387 1178.5858,827.83856 1174.5836,827.8385 C1172.5825,827.83844 1169.3246,827.83844 1175.9967,827.83844 C1182.6688,827.8384 1199.271,827.8384 1147.5729,827.8384 C1061.2551,827.8384 784.534,827.8384 634.68536,827.8384 C506.672,956.50165 378.65854,1085.1649 250.64511,1213.8281 z" stroke="#B8B8B8" stroke-width="0.24" stroke-linecap="round" stroke-linejoin="round" fill="none" />
    <path d="M748.3102,1103.5454 C711.73486,1140.3063 675.15967,1177.0673 638.5844,1213.8281 C675.15967,1250.5891 711.73486,1287.3501 748.3102,1324.111 C783.9221,1324.1108 819.5998,1324.1113 855.1954,1324.111 C890.7909,1324.1107 926.3043,1324.1096 962.0805,1324.111 C997.8567,1324.1122 1033.8956,1324.116 1068.613,1324.1078 C1085.9717,1324.1038 1102.9999,1324.0968 1122.4083,1324.111 C1141.8165,1324.1251 1163.6049,1324.1604 1174.0017,1324.0945 C1181.3739,1324.0479 1183.0186,1323.9503 1185.7603,1323.6648 C1188.502,1323.3794 1192.3403,1322.9062 1195.9182,1322.2698 C1199.4961,1321.6334 1202.8132,1320.8339 1206.196,1319.854 C1209.5789,1318.8739 1213.0276,1317.7134 1216.4348,1316.3689 C1223.2495,1313.6802 1229.8989,1310.256 1236.1986,1306.1344 C1242.4984,1302.0128 1248.4482,1297.1937 1253.8325,1291.8098 C1259.2168,1286.426 1264.0355,1280.4774 1268.1571,1274.1759 C1272.2786,1267.8745 1275.703,1261.2201 1278.3905,1254.4227 C1281.078,1247.6254 1283.0287,1240.6852 1284.2925,1233.8955 C1285.5565,1227.106 1286.1337,1220.467 1286.1337,1213.8281 C1286.1337,1207.1893 1285.5565,1200.5505 1284.2925,1193.7609 C1283.0287,1186.971 1281.0779,1180.0302 1278.3905,1173.2336 C1275.7031,1166.4371 1272.279,1159.785 1268.1578,1153.4814 C1266.0974,1150.3297 1263.8625,1147.265 1261.4692,1144.3171 C1259.0759,1141.3693 1256.5242,1138.5381 1253.8325,1135.8464 C1251.1409,1133.1548 1248.3093,1130.6028 1245.3618,1128.2097 C1242.4146,1125.8168 1239.3511,1123.583 1236.1986,1121.522 C1233.0463,1119.461 1229.8049,1117.573 1226.5032,1115.8657 C1223.2014,1114.1586 1219.8392,1112.6322 1216.4454,1111.2885 C1214.7484,1110.6167 1213.0436,1109.9905 1211.3342,1109.4097 C1209.6249,1108.8289 1207.911,1108.2933 1206.196,1107.8024 C1204.4811,1107.3116 1202.7651,1106.8655 1201.051,1106.4631 C1199.3369,1106.0609 1197.6249,1105.7024 1195.9182,1105.3866 C1194.2117,1105.0707 1192.5105,1104.7975 1190.8152,1104.5654 C1189.9674,1104.4495 1189.1212,1104.3438 1188.2811,1104.248 C1187.4409,1104.1526 1186.6068,1104.067 1185.7603,1103.9915 C1184.9137,1103.9159 1184.0548,1103.8502 1183.2551,1103.7942 C1182.4554,1103.7382 1181.715,1103.6918 1180.7673,1103.655 C1179.8196,1103.6182 1178.6646,1103.591 1178.5854,1103.5725 C1178.5459,1103.5632 1178.7755,1103.5562 1177.072,1103.5521 C1175.3687,1103.548 1171.7327,1103.547 1158.6731,1103.5461 C1126.7012,1103.5444 1038.25,1103.5452 962.0805,1103.5454 C885.9111,1103.5457 822.0233,1103.5453 748.3102,1103.5454 z" stroke="#B8B8B8" stroke-width="0.24" stroke-linecap="round" stroke-linejoin="round" fill="none" />
    <path d="M2534.663,1568.1904 C2580.782,1568.2192 2612.7642,1565.3287 2630.6104,1559.5194 C2655.7156,1551.2642 2675.457,1536.3809 2689.8342,1514.8696 C2704.2112,1493.3584 2711.409,1467.0563 2711.4268,1435.9635 C2711.4456,1403.3376 2703.674,1375.4562 2688.113,1352.3191 C2672.5518,1329.182 2650.8623,1313.316 2623.0447,1304.7213 C2602.1814,1298.2748 2567.7834,1295.0365 2519.85,1295.0067 C2511.9873,1295.0018 2504.1243,1294.997 2496.2615,1294.9921 C2496.2092,1386.0503 2496.157,1477.1084 2496.1047,1568.1665 C2508.9575,1568.1746 2521.8103,1568.1825 2534.663,1568.1904 z" stroke="#B8B8B8" stroke-width="0.24" stroke-linecap="round" stroke-linejoin="round" fill="none" />
    <path d="M725.5852,1048.404 C670.7223,1103.5454 615.8594,1158.6868 560.9965,1213.8281 C615.8594,1268.9695 670.7223,1324.111 725.5852,1379.2523 C763.0935,1379.2521 800.6572,1379.2528 838.1516,1379.2523 C875.646,1379.2518 913.071,1379.2504 950.718,1379.2523 C988.3651,1379.2544 1026.2343,1379.26 1062.9862,1379.2476 C1081.3623,1379.2413 1099.459,1379.2306 1119.5676,1379.2523 C1139.6763,1379.2742 1161.7971,1379.3284 1174.0646,1379.2235 C1182.324,1379.1528 1186.1171,1379.01 1190.715,1378.5833 C1195.313,1378.1564 1200.716,1377.4456 1205.9519,1376.4907 C1211.1879,1375.5358 1216.257,1374.3368 1221.3687,1372.8668 C1226.4803,1371.3969 1231.635,1369.6556 1236.7352,1367.6392 C1246.9357,1363.6061 1256.9193,1358.4714 1266.3726,1352.2875 C1275.8259,1346.1035 1284.7493,1338.8701 1292.8234,1330.8007 C1300.8976,1322.7313 1308.1227,1313.8258 1314.3102,1304.35 C1320.4977,1294.8739 1325.6475,1284.8276 1329.6726,1274.6727 C1337.723,1254.3628 1341.2742,1233.6187 1341.2864,1213.64 C1341.2926,1203.6506 1340.414,1193.8527 1338.5134,1183.727 C1336.6128,1173.6014 1333.6902,1163.1481 1329.6604,1152.9364 C1325.6304,1142.7247 1320.4932,1132.7549 1314.3102,1123.3064 C1308.1273,1113.8579 1300.8987,1104.9309 1292.8246,1096.8539 C1288.7875,1092.8153 1284.5391,1088.9894 1280.1174,1085.4006 C1275.6958,1081.8119 1271.1011,1078.4604 1266.3726,1075.3689 C1261.6442,1072.2772 1256.782,1069.4453 1251.8293,1066.8845 C1246.8766,1064.3237 1241.8334,1062.034 1236.7427,1060.0187 C1231.6519,1058.0033 1226.5135,1056.2621 1221.3687,1054.7894 C1218.7961,1054.0532 1216.222,1053.3842 1213.6511,1052.7806 C1211.0803,1052.1772 1208.5127,1051.6394 1205.9519,1051.1656 C1203.3911,1050.6919 1200.8373,1050.2821 1198.2993,1049.9341 C1197.0303,1049.76 1195.7651,1049.6016 1194.4963,1049.4581 C1193.2273,1049.3147 1191.9545,1049.1865 1190.715,1049.0731 C1189.4753,1048.9597 1188.269,1048.8613 1186.9572,1048.7772 C1185.6453,1048.6932 1184.2277,1048.6238 1183.2256,1048.5685 C1182.2234,1048.5132 1181.6366,1048.4722 1178.9634,1048.4447 C1177.6267,1048.4309 1175.7684,1048.4205 1177.6827,1048.4141 C1179.5969,1048.4077 1185.2836,1048.4053 1171.8392,1048.4043 C1154.5076,1048.4028 1105.382,1048.4037 1063.2845,1048.404 C1021.1869,1048.4043 986.1171,1048.4042 949.83954,1048.404 C877.2843,1048.4039 799.89746,1048.404 725.5852,1048.404 z" stroke="#B8B8B8" stroke-width="0.24" stroke-linecap="round" stroke-linejoin="round" fill="none" />
    <path d="M771.0351,1158.6868 C752.7475,1177.0673 734.4599,1195.4478 716.17224,1213.8281 C734.4599,1232.2086 752.7475,1250.5891 771.0351,1268.9695 C838.60675,1268.97 905.74854,1268.9688 973.5658,1268.97 C1007.4744,1268.9707 1041.552,1268.972 1074.2266,1268.968 C1090.5637,1268.9661 1106.5503,1268.9626 1125.2489,1268.9695 C1143.9475,1268.9764 1165.3579,1268.9937 1174.058,1268.9629 C1180.5731,1268.9397 1179.96,1268.8898 1180.8055,1268.7466 C1181.6511,1268.6033 1183.9553,1268.3671 1185.8845,1268.0491 C1187.8138,1267.731 1189.3682,1267.3313 1191.0234,1266.8411 C1192.6788,1266.3508 1194.435,1265.77 1196.1482,1265.098 C1197.8611,1264.4259 1199.5306,1263.6627 1201.177,1262.8093 C1202.8232,1261.956 1204.4464,1261.0127 1206.0239,1259.9818 C1209.1787,1257.9203 1212.151,1255.5089 1214.8417,1252.819 C1217.5323,1250.1292 1219.9412,1247.1606 1222.0039,1244.0021 C1224.0667,1240.8435 1225.7832,1237.4948 1227.1248,1234.1096 C1229.8081,1227.3397 1230.992,1220.4249 1230.9961,1213.7655 C1230.998,1210.4358 1230.7052,1207.1699 1230.0718,1203.7946 C1229.4382,1200.4191 1228.464,1196.9341 1227.1207,1193.5309 C1225.7773,1190.1278 1224.065,1186.8065 1222.0043,1183.6554 C1220.974,1182.08 1219.8567,1180.5469 1218.6602,1179.0726 C1217.4634,1177.5984 1216.1876,1176.1831 1214.8417,1174.8373 C1213.4958,1173.4916 1212.0802,1172.2155 1210.6064,1171.0189 C1209.1327,1169.8225 1207.6011,1168.7056 1206.0248,1167.6752 C1204.4486,1166.6445 1202.8279,1165.7006 1201.177,1164.8469 C1199.5261,1163.9933 1197.8451,1163.2302 1196.1482,1162.5583 C1195.2996,1162.2224 1194.4471,1161.9094 1193.5925,1161.6189 C1192.7379,1161.3285 1191.8809,1161.0607 1191.0234,1160.8153 C1190.166,1160.57 1189.3081,1160.3468 1188.4509,1160.1458 C1187.594,1159.9445 1186.7378,1159.7653 1185.8845,1159.6073 C1185.0312,1159.4493 1184.1809,1159.3129 1183.3329,1159.1968 C1182.9089,1159.1388 1182.4854,1159.0859 1182.0659,1159.0382 C1181.6466,1158.9904 1181.2311,1158.9476 1180.8055,1158.9098 C1180.38,1158.872 1179.9445,1158.8392 1179.553,1158.8112 C1179.1615,1158.7832 1178.814,1158.76 1178.3091,1158.7416 C1177.8041,1158.7231 1177.1415,1158.7096 1177.2916,1158.7003 C1177.3667,1158.6958 1177.6448,1158.6923 1176.4614,1158.6901 C1175.2782,1158.6881 1172.6334,1158.6875 1159.8168,1158.6871 C1130.1072,1158.6863 1045.7402,1158.6868 973.443,1158.6868 C901.1458,1158.6869 840.91833,1158.6868 771.0351,1158.6868 z" stroke="#B8B8B8" stroke-width="0.24" stroke-linecap="round" stroke-linejoin="round" fill="none" />
    <path d="M173.05727,1213.8281 L557.09753,827.8384 L479.50967,827.8384 L95.46941,1213.8281 L479.50967,1599.818 L557.09753,1599.818 z" stroke="#B8B8B8" stroke-width="0.24" stroke-linecap="round" stroke-linejoin="round" fill="none" />
    <path d="M680.13525,938.1212 C588.69714,1030.0236 497.25897,1121.9258 405.8208,1213.8281 C497.25897,1305.7306 588.69714,1397.6328 680.13525,1489.5352 C721.4451,1489.5352 762.75415,1489.5353 804.0642,1489.5352 C845.3742,1489.535 886.6853,1489.5347 927.99194,1489.5354 C948.64526,1489.5358 969.29755,1489.5365 989.9576,1489.5352 C1010.6175,1489.5338 1031.2853,1489.5308 1051.922,1489.5352 C1072.5587,1489.5396 1093.1643,1489.5515 1113.929,1489.5248 C1124.3113,1489.5114 1134.7334,1489.4882 1144.8687,1489.5352 C1155.0039,1489.5822 1164.8523,1489.6992 1173.5924,1489.6205 C1194.9727,1489.4279 1209.7213,1488.0632 1226.0194,1484.9323 C1242.3175,1481.8014 1260.165,1476.904 1277.3372,1470.1772 C1294.5093,1463.4506 1311.0061,1454.8942 1326.7203,1444.5936 C1342.4347,1434.2931 1357.3665,1422.2483 1370.8246,1408.7881 C1397.7408,1381.8676 1418.7631,1349.2852 1432.2295,1315.3015 C1438.9626,1298.3097 1443.8071,1280.9675 1446.955,1263.9967 C1450.103,1247.0259 1451.5547,1230.4263 1451.5579,1213.8281 C1451.561,1197.23 1450.1156,1180.6333 1446.955,1163.6597 C1443.7943,1146.686 1438.9183,1129.3352 1432.2,1112.3419 C1425.4817,1095.3485 1416.9209,1078.7125 1406.6163,1062.9586 C1396.3119,1047.2046 1384.2639,1032.3326 1370.8069,1018.8718 C1364.0785,1012.1414 1356.9977,1005.76373 1349.6284,999.7822 C1342.2592,993.8006 1334.6012,988.21533 1326.7203,983.0626 C1318.8396,977.91 1310.7361,973.19006 1302.4817,968.92206 C1294.2272,964.6541 1285.8218,960.8381 1277.337,957.47894 C1273.0947,955.7994 1268.8325,954.234 1264.5592,952.7819 C1260.2858,951.3298 1256.0013,949.99084 1251.7139,948.7638 C1247.4265,947.5367 1243.1362,946.42145 1238.8513,945.41565 C1234.5664,944.4099 1230.2869,943.5137 1226.0194,942.72406 C1221.7518,941.9344 1217.4965,941.2513 1213.2639,940.6713 C1211.1476,940.3813 1209.0369,940.11707 1206.9265,939.8781 C1204.816,939.63916 1202.7058,939.4254 1200.6244,939.2365 C1198.5428,939.04755 1196.49,938.8833 1194.3613,938.7433 C1192.2327,938.6033 1190.0283,938.4874 1188.142,938.3953 C1186.2556,938.3032 1184.6875,938.23486 1181.548,938.18896 C1179.9783,938.166 1178.0157,938.1487 1178.9039,938.13806 C1179.7921,938.12756 1183.5309,938.12366 1170.1981,938.1218 C1151.2751,938.1192 1097.964,938.1206 1051.922,938.1212 C1005.8798,938.12177 967.1068,938.12146 927.0844,938.12134 C847.0396,938.121 761.9974,938.1213 680.13525,938.1212 z" stroke="#B8B8B8" stroke-width="0.24" stroke-linecap="round" stroke-linejoin="round" fill="none" />
    <path d="M328.23297,1213.8281 C437.95874,1324.111 547.6846,1434.3938 657.41034,1544.6765 C700.6136,1544.6765 743.81726,1544.6765 787.02045,1544.6765 C830.2237,1544.6765 873.4265,1544.6765 916.6311,1544.6764 C938.2333,1544.6764 959.83606,1544.6763 981.43567,1544.6765 C1003.03534,1544.6768 1024.6318,1544.6772 1046.2407,1544.6765 C1067.8495,1544.6759 1089.4707,1544.674 1111.0289,1544.6782 C1121.8081,1544.6803 1132.5715,1544.684 1143.4988,1544.6716 C1148.9623,1544.6654 1154.4669,1544.6554 1159.6495,1544.6765 C1164.8323,1544.6978 1169.693,1544.7504 1174.4255,1544.7296 C1196.5642,1544.633 1215.8969,1542.9331 1236.0531,1539.1532 C1256.2092,1535.3732 1277.1888,1529.5131 1297.6344,1521.447 C1318.0798,1513.3812 1337.9912,1503.1093 1356.8943,1490.7467 C1375.7974,1478.3844 1393.692,1463.9314 1409.829,1447.7797 C1442.1028,1415.476 1467.3452,1376.3765 1483.5072,1335.5961 C1491.5881,1315.2058 1497.3992,1294.3954 1501.1759,1274.0304 C1504.9526,1253.6654 1506.6952,1233.7458 1506.6992,1213.8281 C1506.7032,1193.9105 1504.9688,1173.9945 1501.1759,1153.626 C1497.3829,1133.2574 1491.5319,1112.4366 1483.4697,1092.0447 C1475.4077,1071.6526 1465.1349,1051.6895 1452.7694,1032.7847 C1440.4042,1013.88 1425.9464,996.0336 1409.7981,979.88055 C1401.724,971.804 1393.2272,964.15076 1384.384,956.97296 C1375.5408,949.79517 1366.3513,943.0928 1356.8944,936.90955 C1347.4374,930.7264 1337.7131,925.06244 1327.8077,919.94086 C1317.9023,914.8192 1307.816,910.24 1297.6344,906.20905 C1292.5436,904.1936 1287.429,902.3152 1282.3009,900.57263 C1277.1729,898.8301 1272.0314,897.2234 1266.8865,895.7509 C1261.7417,894.2784 1256.5934,892.94006 1251.4514,891.73315 C1246.3094,890.52625 1241.174,889.4508 1236.0531,888.5032 C1230.9323,887.5556 1225.826,886.73596 1220.7462,886.0399 C1218.2063,885.69196 1215.6727,885.3749 1213.1416,885.0881 C1210.6104,884.80133 1208.0814,884.54486 1205.5791,884.3181 C1203.0768,884.0914 1200.6011,883.89435 1198.0635,883.7263 C1195.5258,883.5582 1192.9261,883.41925 1190.6001,883.3088 C1188.2742,883.1982 1186.222,883.1162 1182.8345,883.06116 C1181.1407,883.0335 1179.1132,883.01276 1179.5145,883.00006 C1179.9158,882.9874 1182.7458,882.9829 1169.4174,882.9807 C1149.6334,882.9774 1094.2478,882.9791 1046.2407,882.9798 C998.2337,882.98047 957.60504,882.9801 915.70825,882.9799 C831.9148,882.97955 743.0485,882.9799 657.41034,882.9798 C547.6846,993.26263 437.95874,1103.5454 328.23297,1213.8281 z" stroke="#B8B8B8" stroke-width="0.24" stroke-linecap="round" stroke-linejoin="round" fill="none" />
    <path d="M702.8603,993.26263 C629.7097,1066.7844 556.5592,1140.3063 483.40866,1213.8281 C556.5592,1287.3501 629.7097,1360.8718 702.8603,1434.3938 C742.2757,1434.3938 781.6929,1434.3938 821.1079,1434.3938 C860.5229,1434.3938 899.93567,1434.3936 939.3581,1434.3939 C959.0693,1434.394 978.7829,1434.3943 998.4793,1434.3938 C1018.17584,1434.3932 1037.8552,1434.3918 1057.6033,1434.3938 C1077.3512,1434.3956 1097.1677,1434.4008 1116.633,1434.3893 C1126.3656,1434.3835 1136.0104,1434.3737 1146.289,1434.3938 C1156.5675,1434.4138 1167.4797,1434.4636 1175.1904,1434.4077 C1185.0747,1434.336 1189.6979,1434.0907 1195.6697,1433.5016 C1201.6414,1432.9124 1208.9615,1431.9792 1215.9857,1430.7114 C1223.0098,1429.4437 1229.7378,1427.8413 1236.5413,1425.8798 C1243.3447,1423.9181 1250.2234,1421.5973 1257.0273,1418.9092 C1270.635,1413.5326 1283.9431,1406.686 1296.5464,1398.4407 C1309.1499,1390.1951 1321.0483,1380.5508 1331.8142,1369.7915 C1342.5802,1359.0325 1352.2134,1347.1584 1360.4633,1334.5239 C1368.7131,1321.8892 1375.5797,1308.494 1380.9465,1294.9542 C1391.6803,1267.8744 1396.4154,1240.2155 1396.4316,1213.5773 C1396.4398,1200.2582 1395.2682,1187.1942 1392.7341,1173.6934 C1390.2001,1160.1925 1386.3033,1146.2546 1380.9302,1132.6392 C1375.557,1119.0237 1368.7073,1105.7305 1360.4634,1093.1324 C1352.2192,1080.5347 1342.5812,1068.6318 1331.8158,1057.8624 C1326.433,1052.4777 1320.7684,1047.3763 1314.8729,1042.5914 C1308.9774,1037.8064 1302.8511,1033.3379 1296.5464,1029.2157 C1290.2418,1025.0935 1283.759,1021.3176 1277.1554,1017.90326 C1270.5519,1014.4889 1263.8276,1011.43616 1257.0398,1008.74884 C1250.2522,1006.0616 1243.4011,1003.74 1236.5411,1001.77655 C1233.1113,1000.79486 1229.6792,999.9027 1226.2513,999.0982 C1222.8234,998.2936 1219.3998,997.57654 1215.9857,996.9449 C1212.5715,996.3131 1209.1669,995.76666 1205.7816,995.30273 C1204.0889,995.0707 1202.401,994.8593 1200.7113,994.66815 C1199.0217,994.4769 1197.3302,994.3059 1195.6697,994.1548 C1194.009,994.0036 1192.3793,993.87225 1190.6592,993.7603 C1188.9391,993.64825 1187.1288,993.5556 1185.6837,993.4819 C1184.2386,993.40814 1183.1587,993.3536 1180.2577,993.3168 C1178.8071,993.29846 1176.9012,993.28467 1178.2933,993.2761 C1179.6853,993.26764 1184.3751,993.26447 1171.0055,993.26306 C1152.9,993.2611 1101.6754,993.26215 1057.6033,993.26263 C1013.5309,993.26294 976.61084,993.26276 938.46155,993.26263 C862.16284,993.2624 780.947,993.26263 702.8603,993.26263 z" stroke="#B8B8B8" stroke-width="0.24" stroke-linecap="round" stroke-linejoin="round" fill="none" />
    <path d="M2805.2004,1262.072 L2805.0066,1600.3208 L2838.3481,1600.3416 L2838.542,1262.0928 z" stroke="#B8B8B8" stroke-width="0.24" stroke-linecap="round" stroke-linejoin="round" fill="none" />
  </g>
</svg>